<?xml version="1.0" encoding="UTF-8" standalone="no"?>
<svg
   xmlns:dc="http://purl.org/dc/elements/1.1/"
   xmlns:cc="http://creativecommons.org/ns#"
   xmlns:rdf="http://www.w3.org/1999/02/22-rdf-syntax-ns#"
   xmlns:svg="http://www.w3.org/2000/svg"
   xmlns="http://www.w3.org/2000/svg"
   xmlns:sodipodi="http://sodipodi.sourceforge.net/DTD/sodipodi-0.dtd"
   xmlns:inkscape="http://www.inkscape.org/namespaces/inkscape"
   version="1.1"
   viewBox="0.0 0.0 683.0 422.0"
   fill="none"
   stroke="none"
   stroke-linecap="square"
   stroke-miterlimit="10"
   id="svg2"
   inkscape:version="0.48.4 r9939"
   width="100%"
   height="100%"
   sodipodi:docname="No-delay situation.svg">
  <sodipodi:namedview
     pagecolor="#ffffff"
     bordercolor="#666666"
     borderopacity="1"
     objecttolerance="10"
     gridtolerance="10"
     guidetolerance="10"
     inkscape:pageopacity="0"
     inkscape:pageshadow="2"
     inkscape:window-width="1440"
     inkscape:window-height="834"
     id="namedview71"
     showgrid="false"
     inkscape:zoom="1.0161054"
     inkscape:cx="327.97864"
     inkscape:cy="248.99217"
     inkscape:window-x="0"
     inkscape:window-y="27"
     inkscape:window-maximized="1"
     inkscape:current-layer="svg2" />
  <metadata
     id="metadata75">
    <rdf:RDF>
      <cc:Work
         rdf:about="">
        <dc:format>image/svg+xml</dc:format>
        <dc:type
           rdf:resource="http://purl.org/dc/dcmitype/StillImage" />
        <dc:title></dc:title>
      </cc:Work>
    </rdf:RDF>
  </metadata>
  <defs
     id="defs73">
    <marker
       style="overflow:visible"
       id="TriangleOutM"
       refX="0.0"
       refY="0.0"
       orient="auto"
       inkscape:stockid="TriangleOutM">
      <path
         transform="scale(0.4)"
         style="fill-rule:evenodd;stroke:#000000;stroke-width:1.0pt"
         d="M 5.77,0.0 L -2.88,5.0 L -2.88,-5.0 L 5.77,0.0 z "
         id="path4021" />
    </marker>
    <marker
       style="overflow:visible"
       id="TriangleInM"
       refX="0.0"
       refY="0.0"
       orient="auto"
       inkscape:stockid="TriangleInM">
      <path
         transform="scale(-0.4)"
         style="fill-rule:evenodd;stroke:#000000;stroke-width:1.0pt"
         d="M 5.77,0.0 L -2.88,5.0 L -2.88,-5.0 L 5.77,0.0 z "
         id="path4012" />
    </marker>
    <marker
       style="overflow:visible"
       id="Arrow1Mstart"
       refX="0.0"
       refY="0.0"
       orient="auto"
       inkscape:stockid="Arrow1Mstart">
      <path
         transform="scale(0.4) translate(10,0)"
         style="fill-rule:evenodd;stroke:#000000;stroke-width:1.0pt"
         d="M 0.0,0.0 L 5.0,-5.0 L -12.5,0.0 L 5.0,5.0 L 0.0,0.0 z "
         id="path3882" />
    </marker>
    <marker
       style="overflow:visible"
       id="Arrow1Lstart"
       refX="0.0"
       refY="0.0"
       orient="auto"
       inkscape:stockid="Arrow1Lstart">
      <path
         transform="scale(0.8) translate(12.5,0)"
         style="fill-rule:evenodd;stroke:#000000;stroke-width:1.0pt"
         d="M 0.0,0.0 L 5.0,-5.0 L -12.5,0.0 L 5.0,5.0 L 0.0,0.0 z "
         id="path3876" />
    </marker>
    <inkscape:path-effect
       is_visible="true"
       id="path-effect3870"
       effect="spiro" />
    <inkscape:path-effect
       is_visible="true"
       id="path-effect3866"
       effect="spiro" />
    <inkscape:path-effect
       is_visible="true"
       id="path-effect3862"
       effect="spiro" />
    <inkscape:path-effect
       is_visible="true"
       id="path-effect3090"
       effect="spiro" />
    <inkscape:path-effect
       is_visible="true"
       id="path-effect3086"
       effect="spiro" />
    <inkscape:path-effect
       is_visible="true"
       id="path-effect3082"
       effect="spiro" />
    <inkscape:path-effect
       is_visible="true"
       id="path-effect3078"
       effect="spiro" />
    <inkscape:path-effect
       is_visible="true"
       id="path-effect3074"
       effect="spiro" />
    <inkscape:path-effect
       is_visible="true"
       id="path-effect3070"
       effect="spiro" />
    <inkscape:path-effect
       is_visible="true"
       id="path-effect3066"
       effect="spiro" />
    <inkscape:path-effect
       is_visible="true"
       id="path-effect3062"
       effect="spiro" />
    <inkscape:path-effect
       is_visible="true"
       id="path-effect3058"
       effect="spiro" />
    <inkscape:path-effect
       is_visible="true"
       id="path-effect3054"
       effect="spiro" />
    <marker
       style="overflow:visible"
       id="TriangleInMo"
       refX="0.0"
       refY="0.0"
       orient="auto"
       inkscape:stockid="TriangleInMo">
      <path
         transform="scale(-0.4)"
         style="stroke:#009d00;stroke-width:1.0pt;fill:#009d00;fill-rule:evenodd"
         d="M 5.77,0.0 L -2.88,5.0 L -2.88,-5.0 L 5.77,0.0 z "
         id="path5273" />
    </marker>
    <marker
       style="overflow:visible"
       id="TriangleOutMd"
       refX="0.0"
       refY="0.0"
       orient="auto"
       inkscape:stockid="TriangleOutMd">
      <path
         transform="scale(0.4)"
         style="stroke:#009d00;stroke-width:1.0pt;fill:#009d00;fill-rule:evenodd"
         d="M 5.77,0.0 L -2.88,5.0 L -2.88,-5.0 L 5.77,0.0 z "
         id="path5276" />
    </marker>
    <marker
       style="overflow:visible"
       id="TriangleInMo-6"
       refX="0"
       refY="0"
       orient="auto"
       inkscape:stockid="TriangleInMo">
      <path
         inkscape:connector-curvature="0"
         transform="scale(-0.4,-0.4)"
         style="fill:#009d00;fill-rule:evenodd;stroke:#009d00;stroke-width:1pt"
         d="m 5.77,0 -8.65,5 0,-10 8.65,5 z"
         id="path5273-6" />
    </marker>
    <marker
       style="overflow:visible"
       id="TriangleOutMd-4"
       refX="0"
       refY="0"
       orient="auto"
       inkscape:stockid="TriangleOutMd">
      <path
         inkscape:connector-curvature="0"
         transform="scale(0.4,0.4)"
         style="fill:#009d00;fill-rule:evenodd;stroke:#009d00;stroke-width:1pt"
         d="m 5.77,0 -8.65,5 0,-10 8.65,5 z"
         id="path5276-2" />
    </marker>
    <inkscape:path-effect
       is_visible="true"
       id="path-effect3870-3"
       effect="spiro" />
    <marker
       style="overflow:visible"
       id="TriangleInMo-3"
       refX="0"
       refY="0"
       orient="auto"
       inkscape:stockid="TriangleInMo">
      <path
         inkscape:connector-curvature="0"
         transform="scale(-0.4,-0.4)"
         style="fill:#009d00;fill-rule:evenodd;stroke:#009d00;stroke-width:1pt"
         d="m 5.77,0 -8.65,5 0,-10 8.65,5 z"
         id="path5273-63" />
    </marker>
    <marker
       style="overflow:visible"
       id="TriangleOutMd-3"
       refX="0"
       refY="0"
       orient="auto"
       inkscape:stockid="TriangleOutMd">
      <path
         inkscape:connector-curvature="0"
         transform="scale(0.4,0.4)"
         style="fill:#009d00;fill-rule:evenodd;stroke:#009d00;stroke-width:1pt"
         d="m 5.77,0 -8.65,5 0,-10 8.65,5 z"
         id="path5276-6" />
    </marker>
    <inkscape:path-effect
       is_visible="true"
       id="path-effect3870-3-4"
       effect="spiro" />
    <marker
       style="overflow:visible"
       id="TriangleInMo-8"
       refX="0"
       refY="0"
       orient="auto"
       inkscape:stockid="TriangleInMo">
      <path
         inkscape:connector-curvature="0"
         transform="scale(-0.4,-0.4)"
         style="fill:#009d00;fill-rule:evenodd;stroke:#009d00;stroke-width:1pt"
         d="m 5.77,0 -8.65,5 0,-10 8.65,5 z"
         id="path5273-7" />
    </marker>
    <marker
       style="overflow:visible"
       id="TriangleOutMd-37"
       refX="0"
       refY="0"
       orient="auto"
       inkscape:stockid="TriangleOutMd">
      <path
         inkscape:connector-curvature="0"
         transform="scale(0.4,0.4)"
         style="fill:#009d00;fill-rule:evenodd;stroke:#009d00;stroke-width:1pt"
         d="m 5.77,0 -8.65,5 0,-10 8.65,5 z"
         id="path5276-5" />
    </marker>
    <inkscape:path-effect
       is_visible="true"
       id="path-effect3870-3-4-1"
       effect="spiro" />
    <marker
       style="overflow:visible"
       id="TriangleInMo-1"
       refX="0"
       refY="0"
       orient="auto"
       inkscape:stockid="TriangleInMo">
      <path
         inkscape:connector-curvature="0"
         transform="scale(-0.4,-0.4)"
         style="fill:#009d00;fill-rule:evenodd;stroke:#009d00;stroke-width:1pt"
         d="m 5.77,0 -8.65,5 0,-10 8.65,5 z"
         id="path5273-2" />
    </marker>
    <marker
       style="overflow:visible"
       id="TriangleOutMd-1"
       refX="0"
       refY="0"
       orient="auto"
       inkscape:stockid="TriangleOutMd">
      <path
         inkscape:connector-curvature="0"
         transform="scale(0.4,0.4)"
         style="fill:#009d00;fill-rule:evenodd;stroke:#009d00;stroke-width:1pt"
         d="m 5.77,0 -8.65,5 0,-10 8.65,5 z"
         id="path5276-1" />
    </marker>
    <inkscape:path-effect
       is_visible="true"
       id="path-effect3870-3-4-1-7"
       effect="spiro" />
  </defs>
  <clipPath
     id="p.0">
    <path
       id="path5"
       clip-rule="nonzero"
       d="m0 0l683.0 0l0 422.0l-683.0 0l0 -422.0z" />
  </clipPath>
  <g
     id="g7"
     clip-path="url(#p.0)">
    <path
       id="path9"
       fill-rule="nonzero"
       d="m0 0l683.8845 0l0 422.9134l-683.8845 0z"
       fill-opacity="0.0"
       fill="#000000" />
    <path
       id="path11"
       fill-rule="nonzero"
       d="m39.07472 28.679653l0 0c-3.4897957 -6.9548225 7.9678955 -13.839677 29.51115 -17.733063c21.543259 -3.8933868 49.39386 -4.11249 71.73377 -0.5643368l0 0c7.9134674 -4.0438232 22.397446 -6.8358045 39.0708 -7.531423c16.67334 -0.6956186 33.57773 0.78682804 45.599884 3.9989285l0 0c6.7412567 -3.66639 19.977844 -6.1297355 35.012726 -6.5159135c15.034912 -0.3861781 29.740265 1.3594649 38.89792 4.617484l0 0c12.179077 -3.886364 31.556305 -5.522685 49.74704 -4.2009172c18.190735 1.3217676 31.927765 5.3642225 35.266968 10.378171l0 0c14.921448 1.1037436 27.350708 3.909607 34.076416 7.692645c6.7257385 3.7830372 7.088196 8.17214 0.99368286 12.033308l0 0c14.693268 5.1859684 18.130402 12.096209 9.028717 18.151941c-9.101685 6.0557327 -29.374786 10.347157 -53.253693 11.272781c-0.16830444 5.683525 -11.662384 10.898659 -30.05188 13.635254c-18.389496 2.7366028 -40.802887 2.5673447 -58.601013 -0.4425354c-7.5810547 6.807007 -28.91919 11.815529 -54.795578 12.86171c-25.876373 1.0461884 -51.652115 -2.057518 -66.19116 -7.970207c-17.821823 2.914383 -39.206535 3.7539215 -59.33017 2.329239c-20.123634 -1.4246826 -37.29107 -4.993576 -47.629692 -9.901619l0 0c-18.211666 0.57793427 -35.81983 -1.9808426 -44.08563 -6.40641c-8.265795 -4.425564 -5.4296284 -9.775833 7.1009216 -13.395481l0 0c-16.245281 -2.592945 -24.534601 -7.738205 -20.545408 -12.752731c3.9891934 -5.0145264 19.352936 -8.762007 38.07964 -9.288279z"
       fill="#cfe2f3" />
    <path
       id="path13"
       fill-rule="nonzero"
       d="m21.180496 50.988712l0 0c7.6661987 1.2236176 16.522453 1.7786789 25.37967 1.5906601m11.601051 18.211674c3.8089294 -0.1208725 7.542404 -0.37683868 11.104141 -0.76129913m95.850395 8.333366c-2.678955 -1.0894699 -4.9219055 -2.2536545 -6.6906586 -3.4727325m127.68202 -1.4189758l0 0c1.3821411 -1.2410202 2.277649 -2.5182953 2.6716003 -3.8105164m85.977936 -9.381725c0.17919922 -6.0509872 -12.494171 -11.5913315 -32.576477 -14.241295m76.801056 -15.182793c-3.2522583 2.0604744 -8.217224 3.8882942 -14.505554 5.340145m-20.561493 -25.066637l0 0c0.5541382 0.83206654 0.8105774 1.6766386 0.7658081 2.5220098m-85.77841 -8.699013l0 0c-3.0380554 0.96945477 -5.541046 2.0528078 -7.430969 3.2163267m-66.48036 -1.3183203l0 0c-1.6190338 0.8805485 -2.8280182 1.8123198 -3.5991058 2.7738495m-81.072815 0.75871754l0 0c4.727112 0.7507868 9.100327 1.654439 13.02359 2.6911058m-114.2672 15.606393l0 0c0.48098373 0.9585552 1.240963 1.9052925 2.2728233 2.8313522"
       fill-opacity="0.0"
       fill="#000000" />
    <path
       id="path15"
       fill-rule="nonzero"
       d="m39.07472 28.679653l0 0c-3.4897957 -6.9548225 7.9678955 -13.839677 29.51115 -17.733063c21.543259 -3.8933868 49.39386 -4.11249 71.73377 -0.5643368l0 0c7.9134674 -4.0438232 22.397446 -6.8358045 39.0708 -7.531423c16.67334 -0.6956186 33.57773 0.78682804 45.599884 3.9989285l0 0c6.7412567 -3.66639 19.977844 -6.1297355 35.012726 -6.5159135c15.034912 -0.3861781 29.740265 1.3594649 38.89792 4.617484l0 0c12.179077 -3.886364 31.556305 -5.522685 49.74704 -4.2009172c18.190735 1.3217676 31.927765 5.3642225 35.266968 10.378171l0 0c14.921448 1.1037436 27.350708 3.909607 34.076416 7.692645c6.7257385 3.7830372 7.088196 8.17214 0.99368286 12.033308l0 0c14.693268 5.1859684 18.130402 12.096209 9.028717 18.151941c-9.101685 6.0557327 -29.374786 10.347157 -53.253693 11.272781c-0.16830444 5.683525 -11.662384 10.898659 -30.05188 13.635254c-18.389496 2.7366028 -40.802887 2.5673447 -58.601013 -0.4425354c-7.5810547 6.807007 -28.91919 11.815529 -54.795578 12.86171c-25.876373 1.0461884 -51.652115 -2.057518 -66.19116 -7.970207c-17.821823 2.914383 -39.206535 3.7539215 -59.33017 2.329239c-20.123634 -1.4246826 -37.29107 -4.993576 -47.629692 -9.901619l0 0c-18.211666 0.57793427 -35.81983 -1.9808426 -44.08563 -6.40641c-8.265795 -4.425564 -5.4296284 -9.775833 7.1009216 -13.395481l0 0c-16.245281 -2.592945 -24.534601 -7.738205 -20.545408 -12.752731c3.9891934 -5.0145264 19.352936 -8.762007 38.07964 -9.288279z"
       stroke-linecap="butt"
       stroke-linejoin="round"
       stroke-width="2.0"
       stroke="#000000" />
    <path
       id="path17"
       fill-rule="nonzero"
       d="m21.180496 50.988712l0 0c7.6661987 1.2236176 16.522453 1.7786789 25.37967 1.5906601m11.601051 18.211674c3.8089294 -0.1208725 7.542404 -0.37683868 11.104141 -0.76129913m95.850395 8.333366c-2.678955 -1.0894699 -4.9219055 -2.2536545 -6.6906586 -3.4727325m127.68202 -1.4189758l0 0c1.3821411 -1.2410202 2.277649 -2.5182953 2.6716003 -3.8105164m85.977936 -9.381725c0.17919922 -6.0509872 -12.494171 -11.5913315 -32.576477 -14.241295m76.801056 -15.182793c-3.2522583 2.0604744 -8.217224 3.8882942 -14.505554 5.340145m-20.561493 -25.066637l0 0c0.5541382 0.83206654 0.8105774 1.6766386 0.7658081 2.5220098m-85.77841 -8.699013l0 0c-3.0380554 0.96945477 -5.541046 2.0528078 -7.430969 3.2163267m-66.48036 -1.3183203l0 0c-1.6190338 0.8805485 -2.8280182 1.8123198 -3.5991058 2.7738495m-81.072815 0.75871754l0 0c4.727112 0.7507868 9.100327 1.654439 13.02359 2.6911058m-114.2672 15.606393l0 0c0.48098373 0.9585552 1.240963 1.9052925 2.2728233 2.8313522"
       stroke-linecap="butt"
       stroke-linejoin="round"
       stroke-width="2.0"
       stroke="#000000" />
    <path
       id="path19"
       fill-rule="nonzero"
       d="m167.97165 48.031494l0 -13.5625l1.578125 0l0 13.5625l-1.578125 0zm11.935898 0l0 -6.578125q0 -1.25 -0.578125 -1.859375q-0.5625 -0.609375 -1.765625 -0.609375q-1.59375 0 -2.34375 0.875q-0.734375 0.859375 -0.734375 2.84375l0 5.328125l-1.53125 0l0 -10.171875l1.25 0l0.25 1.390625l0.0625 0q0.484375 -0.75 1.328125 -1.15625q0.859375 -0.421875 1.90625 -0.421875q1.84375 0 2.765625 0.890625q0.921875 0.890625 0.921875 2.828125l0 6.640625l-1.53125 0zm7.7787476 -1.078125q0.40625 0 0.78125 -0.0625q0.390625 -0.0625 0.609375 -0.125l0 1.171875q-0.25 0.125 -0.75 0.203125q-0.484375 0.078125 -0.87498474 0.078125q-2.9375 0 -2.9375 -3.109375l0 -6.046875l-1.46875 0l0 -0.75l1.46875 -0.640625l0.640625 -2.171875l0.890625 0l0 2.359375l2.9531097 0l0 1.203125l-2.9531097 0l0 5.984375q0 0.921875 0.4375 1.421875q0.4375 0.484375 1.2031097 0.484375zm7.5861816 1.265625q-2.25 0 -3.5625 -1.375q-1.296875 -1.375 -1.296875 -3.8125q0 -2.453125 1.203125 -3.90625q1.21875 -1.453125 3.265625 -1.453125q1.90625 0 3.015625 1.265625q1.125 1.25 1.125 3.3125l0 0.96875l-7.015625 0q0.046875 1.796875 0.90625 2.734375q0.859375 0.921875 2.421875 0.921875q1.640625 0 3.25 -0.6875l0 1.375q-0.8125 0.34375 -1.546875 0.5q-0.734375 0.15625 -1.765625 0.15625zm-0.40625 -9.25q-1.234375 0 -1.96875 0.796875q-0.71875 0.796875 -0.84375 2.203125l5.3125 0q0 -1.453125 -0.65625 -2.21875q-0.640625 -0.78125 -1.84375 -0.78125zm11.216797 -1.296875q0.6875 0 1.21875 0.109375l-0.203125 1.4375q-0.640625 -0.140625 -1.125 -0.140625q-1.234375 0 -2.109375 1.0q-0.875 1.0 -0.875 2.5l0 5.453125l-1.53125 0l0 -10.171875l1.265625 0l0.171875 1.890625l0.078125 0q0.5625 -1.0 1.359375 -1.53125q0.796875 -0.546875 1.75 -0.546875zm9.943665 10.359375l0 -6.578125q0 -1.25 -0.578125 -1.859375q-0.5625 -0.609375 -1.765625 -0.609375q-1.59375 0 -2.34375 0.875q-0.734375 0.859375 -0.734375 2.84375l0 5.328125l-1.53125 0l0 -10.171875l1.25 0l0.25 1.390625l0.0625 0q0.484375 -0.75 1.328125 -1.15625q0.859375 -0.421875 1.90625 -0.421875q1.84375 0 2.765625 0.890625q0.921875 0.890625 0.921875 2.828125l0 6.640625l-1.53125 0zm8.778778 0.1875q-2.25 0 -3.5625 -1.375q-1.296875 -1.375 -1.296875 -3.8125q0 -2.453125 1.203125 -3.90625q1.21875 -1.453125 3.265625 -1.453125q1.90625 0 3.015625 1.265625q1.125 1.25 1.125 3.3125l0 0.96875l-7.015625 0q0.046875 1.796875 0.90625 2.734375q0.859375 0.921875 2.421875 0.921875q1.640625 0 3.25 -0.6875l0 1.375q-0.8125 0.34375 -1.546875 0.5q-0.734375 0.15625 -1.765625 0.15625zm-0.40625 -9.25q-1.234375 0 -1.96875 0.796875q-0.71875 0.796875 -0.84375 2.203125l5.3125 0q0 -1.453125 -0.65625 -2.21875q-0.640625 -0.78125 -1.84375 -0.78125zm9.873047 7.984375q0.40625 0 0.78125 -0.0625q0.390625 -0.0625 0.609375 -0.125l0 1.171875q-0.25 0.125 -0.75 0.203125q-0.484375 0.078125 -0.875 0.078125q-2.9375 0 -2.9375 -3.109375l0 -6.046875l-1.46875 0l0 -0.75l1.46875 -0.640625l0.640625 -2.171875l0.890625 0l0 2.359375l2.953125 0l0 1.203125l-2.953125 0l0 5.984375q0 0.921875 0.4375 1.421875q0.4375 0.484375 1.203125 0.484375z"
       fill="#000000" />
    <path
       id="path21"
       fill-rule="nonzero"
       d="m0 182.91339l206.20473 0l0 124.66141l-206.20473 0z"
       fill="#cfe2f3" />
    <path
       id="path23"
       fill-rule="nonzero"
       d="m0 182.91339l206.20473 0l0 124.66141l-206.20473 0z"
       stroke-linecap="butt"
       stroke-linejoin="round"
       stroke-width="2.0"
       stroke="#000000" />
    <path
       id="path25"
       fill-rule="nonzero"
       d="m25.629921 225.82437l0 0c0 -6.3260345 5.1282635 -11.4543 11.454296 -11.4543l134.38275 0c3.0378723 0 5.951309 1.2068024 8.099411 3.354889c2.1481018 2.1481018 3.354889 5.061554 3.354889 8.099411l0 45.815826c0 6.3260193 -5.1282654 11.454285 -11.4543 11.454285l-134.38275 0c-6.3260326 0 -11.454296 -5.1282654 -11.454296 -11.454285z"
       fill="#ffe599" />
    <path
       id="path27"
       fill-rule="nonzero"
       d="m25.629921 225.82437l0 0c0 -6.3260345 5.1282635 -11.4543 11.454296 -11.4543l134.38275 0c3.0378723 0 5.951309 1.2068024 8.099411 3.354889c2.1481018 2.1481018 3.354889 5.061554 3.354889 8.099411l0 45.815826c0 6.3260193 -5.1282654 11.454285 -11.4543 11.454285l-134.38275 0c-6.3260326 0 -11.454296 -5.1282654 -11.454296 -11.454285z"
       stroke-linecap="butt"
       stroke-linejoin="round"
       stroke-width="2.0"
       stroke="#000000" />
    <path
       id="path29"
       fill-rule="nonzero"
       d="m70.61941 247.80853l-0.640625 2.140625l2.390625 0l-0.171875 1.921875l-2.75 0l-1.078125 3.78125l-2.046875 0l1.09375 -3.78125l-1.796875 0l-1.078125 3.78125l-1.984375 0l1.046875 -3.78125l-2.21875 0l0.171875 -1.921875l2.578125 0l0.640625 -2.140625l-2.34375 0l0.171875 -1.9375l2.6875 0l1.09375 -3.78125l2.015625 0l-1.078125 3.78125l1.84375 0l1.078125 -3.78125l1.984375 0l-1.0625 3.78125l2.203125 0l-0.15625 1.9375l-2.59375 0zm-4.484375 2.140625l1.828125 0l0.640625 -2.140625l-1.8125 0l-0.65625 2.140625zm12.739365 -2.375l3.46875 -5.484375l3.171875 0l-5.734375 8.375l-1.09375 5.1875l-2.8125 0l1.109375 -5.1875l-2.203125 -8.375l2.90625 0l1.1875 5.484375zm12.177719 1.625q0 -1.828125 -1.328125 -1.828125q-0.6875 0 -1.25 0.5625q-0.546875 0.5625 -0.90625 1.65625q-0.34375 1.09375 -0.34375 2.265625q0 1.703125 1.390625 1.703125q0.703125 0 1.25 -0.5625q0.5625 -0.578125 0.875 -1.59375q0.3125 -1.015625 0.3125 -2.203125zm2.8125 0q0 1.953125 -0.65625 3.46875q-0.65625 1.515625 -1.890625 2.34375q-1.234375 0.828125 -2.921875 0.828125q-1.8125 0 -2.90625 -1.09375q-1.078125 -1.09375 -1.078125 -2.890625q0 -1.984375 0.65625 -3.53125q0.671875 -1.546875 1.921875 -2.390625q1.265625 -0.84375 2.9375 -0.84375q1.828125 0 2.875 1.09375q1.0625 1.09375 1.0625 3.015625zm3.0694275 -3.921875l2.78125 0l-1.265625 6.0625q-0.15625 0.625 -0.15625 1.109375q0 1.140625 1.015625 1.140625q0.84375 0 1.53125 -1.0625q0.703125 -1.0625 1.109375 -2.953125l0.90625 -4.296875l2.796875 0l-2.203125 10.375l-2.140625 0l0.203125 -1.921875l-0.0625 0q-1.34375 2.109375 -3.28125 2.109375q-1.28125 0 -1.96875 -0.765625q-0.671875 -0.765625 -0.671875 -2.21875q0 -0.859375 0.21875 -1.96875l1.1875 -5.609375zm16.643448 -0.1875q0.546875 0 0.890625 0.09375l-0.609375 2.6875q-0.421875 -0.140625 -0.9375 -0.140625q-1.0625 0 -1.875 0.859375q-0.8125 0.84375 -1.15625 2.421875l-0.984375 4.640625l-2.796875 0l2.203125 -10.375l2.125 0l-0.1875 1.921875l0.046875 0q1.375 -2.109375 3.28125 -2.109375zm7.8523865 7.328125l-4.390625 0l-1.59375 3.234375l-2.96875 0l7.109375 -13.625l3.453125 0l1.375 13.625l-2.765625 0l-0.21875 -3.234375zm-0.140625 -2.40625l-0.234375 -3.25q-0.09375 -1.21875 -0.09375 -2.34375l0 -0.328125q-0.40625 1.109375 -1.015625 2.34375l-1.75 3.578125l3.09375 0zm11.589806 -4.921875q1.34375 0 2.125 1.0q0.796875 0.984375 0.796875 2.78125q0 1.765625 -0.640625 3.40625q-0.640625 1.640625 -1.75 2.609375q-1.09375 0.953125 -2.421875 0.953125q-0.765625 0 -1.328125 -0.34375q-0.546875 -0.34375 -1.03125 -1.171875l-0.0625 0q-0.109375 1.484375 -0.40625 2.734375l-0.6718674 3.15625l-2.78125 0l3.171875 -14.9375l2.1249924 0l-0.15625 1.578125l0.09375 0q1.265625 -1.765625 2.9375 -1.765625zm-1.125 2.265625q-0.625 0 -1.21875 0.625q-0.59375 0.625 -0.953125 1.671875q-0.359375 1.03125 -0.359375 2.296875q0 0.75 0.34375 1.203125q0.34375 0.4375 0.953125 0.4375q0.625 0 1.1875 -0.640625q0.5625 -0.640625 0.90625 -1.75q0.359375 -1.125 0.359375 -2.21875q0 -1.625 -1.21875 -1.625zm12.229477 -2.265625q1.34375 0 2.125 1.0q0.796875 0.984375 0.796875 2.78125q0 1.765625 -0.640625 3.40625q-0.640625 1.640625 -1.75 2.609375q-1.09375 0.953125 -2.421875 0.953125q-0.765625 0 -1.328125 -0.34375q-0.546875 -0.34375 -1.03125 -1.171875l-0.0625 0q-0.109375 1.484375 -0.40625 2.734375l-0.671875 3.15625l-2.78125 0l3.171875 -14.9375l2.125 0l-0.15625 1.578125l0.09375 0q1.265625 -1.765625 2.9375 -1.765625zm-1.125 2.265625q-0.625 0 -1.21875 0.625q-0.59375 0.625 -0.953125 1.671875q-0.359375 1.03125 -0.359375 2.296875q0 0.75 0.34375 1.203125q0.34375 0.4375 0.953125 0.4375q0.625 0 1.1875 -0.640625q0.5625 -0.640625 0.90625 -1.75q0.359375 -1.125 0.359375 -2.21875q0 -1.625 -1.21875 -1.625z"
       fill="#990000" />
    <path
       id="path31"
       fill-rule="nonzero"
       d="m1.1653544 182.91339l205.03937 0l0 16.314957l-205.03937 0z"
       fill="#999999" />
    <path
       id="path33"
       fill-rule="nonzero"
       d="m1.1653544 182.91339l205.03937 0l0 16.314957l-205.03937 0z"
       stroke-linecap="butt"
       stroke-linejoin="round"
       stroke-width="2.0"
       stroke="#000000" />
    <path
       id="path35"
       fill-rule="nonzero"
       d="m182.92126 182.91602l23.307083 0l0 16.314957l-23.307083 0z"
       fill="#cfe2f3" />
    <path
       id="path37"
       fill-rule="nonzero"
       d="m182.92126 182.91602l23.307083 0l0 16.314957l-23.307083 0z"
       stroke-linecap="butt"
       stroke-linejoin="round"
       stroke-width="2.0"
       stroke="#000000" />
    <path
       id="path39"
       fill-rule="nonzero"
       d="m196.14001 192.07661l2.53125 3.265625l0.203125 0q0.1875 0 0.265625 0.078125q0.09375 0.0625 0.09375 0.1875q0 0.109375 -0.09375 0.1875q-0.078125 0.078125 -0.265625 0.078125l-1.703125 0q-0.203125 0 -0.28125 -0.078125q-0.078125 -0.078125 -0.078125 -0.1875q0 -0.125 0.078125 -0.1875q0.078125 -0.078125 0.28125 -0.078125l0.84375 0l-2.203125 -2.828125l-2.171875 2.828125l0.84375 0q0.1875 0 0.265625 0.078125q0.09375 0.0625 0.09375 0.1875q0 0.109375 -0.09375 0.1875q-0.078125 0.078125 -0.265625 0.078125l-1.703125 0q-0.1875 0 -0.265625 -0.078125q-0.078125 -0.078125 -0.078125 -0.1875q0 -0.09375 0.046875 -0.15625q0.046875 -0.078125 0.109375 -0.09375q0.0625 -0.015625 0.390625 -0.015625l2.5 -3.265625l-2.390625 -3.09375l-0.1875 0q-0.203125 0 -0.28125 -0.078125q-0.078125 -0.078125 -0.078125 -0.1875q0 -0.125 0.078125 -0.1875q0.078125 -0.078125 0.28125 -0.078125l1.453125 0q0.1875 0 0.265625 0.078125q0.09375 0.0625 0.09375 0.1875q0 0.109375 -0.09375 0.1875q-0.078125 0.078125 -0.265625 0.078125l-0.609375 0l2.0625 2.65625l2.046875 -2.65625l-0.59375 0q-0.203125 0 -0.28125 -0.078125q-0.078125 -0.078125 -0.078125 -0.1875q0 -0.125 0.078125 -0.1875q0.078125 -0.078125 0.28125 -0.078125l1.453125 0q0.1875 0 0.265625 0.078125q0.09375 0.0625 0.09375 0.1875q0 0.109375 -0.09375 0.1875q-0.078125 0.078125 -0.265625 0.078125l-0.203125 0l-2.375 3.09375z"
       fill="#ff0000" />
    <path
       id="path41"
       fill-rule="nonzero"
       d="m275.53018 182.91339l157.29135 0l0 109.51181l-157.29135 0z"
       fill="#cfe2f3" />
    <path
       id="path43"
       fill-rule="nonzero"
       d="m275.53018 182.91339l157.29135 0l0 109.51181l-157.29135 0z"
       stroke-linecap="butt"
       stroke-linejoin="round"
       stroke-width="2.0"
       stroke="#000000" />
    <path
       id="path45"
       fill-rule="nonzero"
       d="m333.5712 233.5893l0 -13.5625l1.578125 0l0 12.140625l5.984375 0l0 1.421875l-7.5625 0zm18.230286 -5.09375q0 2.484375 -1.25 3.890625q-1.25 1.390625 -3.453125 1.390625q-1.375 0 -2.4375 -0.640625q-1.046875 -0.640625 -1.625 -1.828125q-0.578125 -1.203125 -0.578125 -2.8125q0 -2.484375 1.234375 -3.875q1.25 -1.390625 3.46875 -1.390625q2.125 0 3.375 1.421875q1.265625 1.421875 1.265625 3.84375zm-7.75 0q0 1.953125 0.78125 2.96875q0.78125 1.015625 2.296875 1.015625q1.515625 0 2.296875 -1.015625q0.78125 -1.015625 0.78125 -2.96875q0 -1.9375 -0.78125 -2.9375q-0.78125 -1.015625 -2.3125 -1.015625q-1.515625 0 -2.296875 1.0q-0.765625 0.984375 -0.765625 2.953125zm14.315308 5.28125q-2.21875 0 -3.4375 -1.359375q-1.203125 -1.359375 -1.203125 -3.84375q0 -2.5625 1.234375 -3.953125q1.234375 -1.390625 3.5 -1.390625q0.734375 0 1.46875 0.171875q0.734375 0.15625 1.15625 0.359375l-0.484375 1.3125q-0.5 -0.203125 -1.109375 -0.328125q-0.609375 -0.140625 -1.0625 -0.140625q-3.109375 0 -3.109375 3.953125q0 1.875 0.75 2.875q0.765625 1.0 2.25 1.0q1.28125 0 2.609375 -0.546875l0 1.359375q-1.015625 0.53125 -2.5625 0.53125zm11.069275 -0.1875l-0.3125 -1.453125l-0.078125 0q-0.75 0.96875 -1.515625 1.3125q-0.75 0.328125 -1.890625 0.328125q-1.5 0 -2.359375 -0.78125q-0.859375 -0.78125 -0.859375 -2.21875q0 -3.078125 4.921875 -3.234375l1.734375 -0.046875l0 -0.625q0 -1.203125 -0.515625 -1.765625q-0.515625 -0.578125 -1.65625 -0.578125q-1.265625 0 -2.875 0.78125l-0.46875 -1.1875q0.75 -0.40625 1.640625 -0.625q0.90625 -0.234375 1.796875 -0.234375q1.828125 0 2.703125 0.8125q0.875 0.796875 0.875 2.578125l0 6.9375l-1.140625 0zm-3.484375 -1.078125q1.4375 0 2.25 -0.78125q0.828125 -0.796875 0.828125 -2.21875l0 -0.921875l-1.53125 0.0625q-1.84375 0.0625 -2.65625 0.578125q-0.8125 0.5 -0.8125 1.5625q0 0.84375 0.5 1.28125q0.515625 0.4375 1.421875 0.4375zm9.141327 1.078125l-1.53125 0l0 -14.4375l1.53125 0l0 14.4375z"
       fill="#000000" />
    <path
       id="path47"
       fill-rule="nonzero"
       d="m321.08804 255.5893l-1.5625 0l-2.734375 -9.078125q-0.1875 -0.609375 -0.4375 -1.515625q-0.234375 -0.921875 -0.25 -1.109375q-0.203125 1.21875 -0.640625 2.671875l-2.65625 9.03125l-1.5625 0l-3.609375 -13.5625l1.671875 0l2.140625 8.375q0.453125 1.765625 0.65625 3.1875q0.25 -1.6875 0.734375 -3.3125l2.4375 -8.25l1.671875 0l2.546875 8.328125q0.4375 1.4375 0.75 3.234375q0.171875 -1.3125 0.671875 -3.203125l2.125 -8.359375l1.671875 0l-3.625 13.5625zm9.490356 0.1875q-2.25 0 -3.5625 -1.375q-1.296875 -1.375 -1.296875 -3.8125q0 -2.453125 1.203125 -3.90625q1.21875 -1.453125 3.265625 -1.453125q1.90625 0 3.015625 1.265625q1.125 1.25 1.125 3.3125l0 0.96875l-7.015625 0q0.046875 1.796875 0.90625 2.734375q0.859375 0.921875 2.421875 0.921875q1.640625 0 3.25 -0.6875l0 1.375q-0.8125 0.34375 -1.546875 0.5q-0.734375 0.15625 -1.765625 0.15625zm-0.40625 -9.25q-1.234375 0 -1.96875 0.796875q-0.71875 0.796875 -0.84375 2.203125l5.3125 0q0 -1.453125 -0.65625 -2.21875q-0.640625 -0.78125 -1.84375 -0.78125zm11.310577 -1.265625q2.015625 0 3.109375 1.375q1.109375 1.359375 1.109375 3.859375q0 2.5 -1.125 3.890625q-1.109375 1.390625 -3.09375 1.390625q-0.984375 0 -1.8125 -0.359375q-0.8125 -0.375 -1.375 -1.140625l-0.109375 0l-0.328125 1.3125l-1.09375 0l0 -14.4375l1.53125 0l0 3.515625q0 1.171875 -0.078125 2.109375l0.078125 0q1.078125 -1.515625 3.1875 -1.515625zm-0.21875 1.28125q-1.578125 0 -2.28125 0.90625q-0.6875 0.90625 -0.6875 3.046875q0 2.140625 0.71875 3.0625q0.71875 0.921875 2.28125 0.921875q1.421875 0 2.109375 -1.03125q0.703125 -1.03125 0.703125 -2.96875q0 -1.984375 -0.703125 -2.953125q-0.6875 -0.984375 -2.140625 -0.984375zm13.479279 6.265625q0 1.421875 -1.0625 2.203125q-1.046875 0.765625 -2.953125 0.765625q-2.03125 0 -3.15625 -0.640625l0 -1.4375q0.734375 0.375 1.5625 0.59375q0.84375 0.21875 1.625 0.21875q1.203125 0 1.84375 -0.390625q0.65625 -0.390625 0.65625 -1.171875q0 -0.59375 -0.515625 -1.015625q-0.515625 -0.421875 -2.0 -1.0q-1.421875 -0.53125 -2.03125 -0.921875q-0.59375 -0.390625 -0.890625 -0.890625q-0.28125 -0.515625 -0.28125 -1.203125q0 -1.25 1.0 -1.96875q1.015625 -0.71875 2.78125 -0.71875q1.640625 0 3.21875 0.671875l-0.546875 1.25q-1.53125 -0.625 -2.78125 -0.625q-1.09375 0 -1.65625 0.34375q-0.546875 0.34375 -0.546875 0.9375q0 0.421875 0.203125 0.703125q0.203125 0.28125 0.671875 0.546875q0.46875 0.265625 1.78125 0.75q1.8125 0.65625 2.4375 1.328125q0.640625 0.671875 0.640625 1.671875zm6.634369 2.96875q-2.25 0 -3.5625 -1.375q-1.296875 -1.375 -1.296875 -3.8125q0 -2.453125 1.203125 -3.90625q1.21875 -1.453125 3.265625 -1.453125q1.90625 0 3.015625 1.265625q1.125 1.25 1.125 3.3125l0 0.96875l-7.015625 0q0.046875 1.796875 0.90625 2.734375q0.859375 0.921875 2.421875 0.921875q1.640625 0 3.25 -0.6875l0 1.375q-0.8125 0.34375 -1.546875 0.5q-0.734375 0.15625 -1.765625 0.15625zm-0.40625 -9.25q-1.234375 0 -1.96875 0.796875q-0.71875 0.796875 -0.84375 2.203125l5.3125 0q0 -1.453125 -0.65625 -2.21875q-0.640625 -0.78125 -1.84375 -0.78125zm11.216797 -1.296875q0.6875 0 1.21875 0.109375l-0.203125 1.4375q-0.640625 -0.140625 -1.125 -0.140625q-1.234375 0 -2.109375 1.0q-0.875 1.0 -0.875 2.5l0 5.453125l-1.53125 0l0 -10.171875l1.265625 0l0.171875 1.890625l0.078125 0q0.5625 -1.0 1.359375 -1.53125q0.796875 -0.546875 1.75 -0.546875zm5.2092896 10.359375l-3.859375 -10.171875l1.65625 0l2.1875 6.03125q0.734375 2.125 0.875 2.75l0.0625 0q0.109375 -0.5 0.640625 -2.03125q0.546875 -1.546875 2.453125 -6.75l1.640625 0l-3.859375 10.171875l-1.796875 0zm11.408844 0.1875q-2.25 0 -3.5625 -1.375q-1.296875 -1.375 -1.296875 -3.8125q0 -2.453125 1.203125 -3.90625q1.21875 -1.453125 3.265625 -1.453125q1.90625 0 3.015625 1.265625q1.125 1.25 1.125 3.3125l0 0.96875l-7.015625 0q0.046875 1.796875 0.90625 2.734375q0.859375 0.921875 2.421875 0.921875q1.640625 0 3.25 -0.6875l0 1.375q-0.8125 0.34375 -1.546875 0.5q-0.734375 0.15625 -1.765625 0.15625zm-0.40625 -9.25q-1.234375 0 -1.96875 0.796875q-0.71875 0.796875 -0.84375 2.203125l5.3125 0q0 -1.453125 -0.65625 -2.21875q-0.640625 -0.78125 -1.84375 -0.78125zm11.216827 -1.296875q0.6875 0 1.21875 0.109375l-0.203125 1.4375q-0.640625 -0.140625 -1.125 -0.140625q-1.234375 0 -2.109375 1.0q-0.875 1.0 -0.875 2.5l0 5.453125l-1.53125 0l0 -10.171875l1.265625 0l0.171875 1.890625l0.078125 0q0.5625 -1.0 1.359375 -1.53125q0.796875 -0.546875 1.75 -0.546875z"
       fill="#000000" />
    <path
       id="path49"
       fill-rule="nonzero"
       d="m313.41208 382.1378l0 0c0 -2.251892 19.299927 -4.077423 43.107605 -4.077423c23.807678 0 43.107605 1.825531 43.107605 4.077423l0 16.309723c0 2.251892 -19.299927 4.077423 -43.107605 4.077423c-23.807678 0 -43.107605 -1.825531 -43.107605 -4.077423z"
       fill="#cfe2f3" />
    <path
       id="path51"
       fill-rule="nonzero"
       d="m399.6273 382.1378l0 0c0 2.2519226 -19.299927 4.077423 -43.107605 4.077423c-23.807678 0 -43.107605 -1.8255005 -43.107605 -4.077423"
       fill-opacity="0.0"
       fill="#000000" />
    <path
       id="path53"
       fill-rule="nonzero"
       d="m313.41208 382.1378l0 0c0 -2.251892 19.299927 -4.077423 43.107605 -4.077423c23.807678 0 43.107605 1.825531 43.107605 4.077423l0 16.309723c0 2.251892 -19.299927 4.077423 -43.107605 4.077423c-23.807678 0 -43.107605 -1.825531 -43.107605 -4.077423z"
       fill-opacity="0.0"
       fill="#000000" />
    <path
       id="path55"
       fill-rule="nonzero"
       d="m399.6273 382.1378l0 0c0 2.2519226 -19.299927 4.077423 -43.107605 4.077423c-23.807678 0 -43.107605 -1.8255005 -43.107605 -4.077423"
       stroke-linecap="butt"
       stroke-linejoin="round"
       stroke-width="2.0"
       stroke="#000000" />
    <path
       id="path57"
       fill-rule="nonzero"
       d="m313.41208 382.1378l0 0c0 -2.251892 19.299927 -4.077423 43.107605 -4.077423c23.807678 0 43.107605 1.825531 43.107605 4.077423l0 16.309723c0 2.251892 -19.299927 4.077423 -43.107605 4.077423c-23.807678 0 -43.107605 -1.825531 -43.107605 -4.077423z"
       stroke-linecap="butt"
       stroke-linejoin="round"
       stroke-width="2.0"
       stroke="#000000" />
    <path
       id="path59"
       fill-rule="nonzero"
       d="m414.77167 366.29398l68.724396 0l0 48.0l-68.724396 0z"
       fill-opacity="0.0"
       fill="#000000" />
    <path
       id="path61"
       fill-rule="nonzero"
       d="m435.92792 393.21396l-1.578125 0l0 -6.390625l-7.140625 0l0 6.390625l-1.578125 0l0 -13.5625l1.578125 0l0 5.765625l7.140625 0l0 -5.765625l1.578125 0l0 13.5625zm14.295685 -6.90625q0 3.359375 -1.828125 5.140625q-1.8125 1.765625 -5.234375 1.765625l-3.765625 0l0 -13.5625l4.15625 0q3.171875 0 4.921875 1.75q1.75 1.75 1.75 4.90625zm-1.671875 0.046875q0 -2.65625 -1.328125 -4.0q-1.328125 -1.34375 -3.953125 -1.34375l-2.296875 0l0 10.84375l1.921875 0q2.828125 0 4.234375 -1.390625q1.421875 -1.390625 1.421875 -4.109375zm15.272369 -0.046875q0 3.359375 -1.828125 5.140625q-1.8125 1.765625 -5.234375 1.765625l-3.765625 0l0 -13.5625l4.15625 0q3.171875 0 4.921875 1.75q1.75 1.75 1.75 4.90625zm-1.671875 0.046875q0 -2.65625 -1.328125 -4.0q-1.328125 -1.34375 -3.953125 -1.34375l-2.296875 0l0 10.84375l1.921875 0q2.828125 0 4.234375 -1.390625q1.421875 -1.390625 1.421875 -4.109375z"
       fill="#000000" />
    <path
       id="path63"
       fill-rule="nonzero"
       d="m514.95276 182.91339l139.81104 0l0 106.58267l-139.81104 0z"
       fill="#cfe2f3" />
    <path
       id="path65"
       fill-rule="nonzero"
       d="m514.95276 182.91339l139.81104 0l0 106.58267l-139.81104 0z"
       stroke-linecap="butt"
       stroke-linejoin="round"
       stroke-width="2.0"
       stroke="#000000" />
    <path
       id="path67"
       fill-rule="nonzero"
       d="m564.2536 232.12473l0 -13.5625l1.578125 0l0 12.140625l5.984375 0l0 1.421875l-7.5625 0zm18.230286 -5.09375q0 2.484375 -1.25 3.890625q-1.25 1.390625 -3.453125 1.390625q-1.375 0 -2.4375 -0.640625q-1.046875 -0.640625 -1.625 -1.828125q-0.578125 -1.203125 -0.578125 -2.8125q0 -2.484375 1.234375 -3.875q1.25 -1.390625 3.46875 -1.390625q2.125 0 3.375 1.421875q1.265625 1.421875 1.265625 3.84375zm-7.75 0q0 1.953125 0.78125 2.96875q0.78125 1.015625 2.296875 1.015625q1.515625 0 2.296875 -1.015625q0.78125 -1.015625 0.78125 -2.96875q0 -1.9375 -0.78125 -2.9375q-0.78125 -1.015625 -2.3125 -1.015625q-1.515625 0 -2.296875 1.0q-0.765625 0.984375 -0.765625 2.953125zm14.315308 5.28125q-2.21875 0 -3.4375 -1.359375q-1.203125 -1.359375 -1.203125 -3.84375q0 -2.5625 1.234375 -3.953125q1.234375 -1.390625 3.5 -1.390625q0.734375 0 1.46875 0.171875q0.734375 0.15625 1.15625 0.359375l-0.484375 1.3125q-0.5 -0.203125 -1.109375 -0.328125q-0.609375 -0.140625 -1.0625 -0.140625q-3.109375 0 -3.109375 3.953125q0 1.875 0.75 2.875q0.765625 1.0 2.25 1.0q1.28125 0 2.609375 -0.546875l0 1.359375q-1.015625 0.53125 -2.5625 0.53125zm11.069275 -0.1875l-0.3125 -1.453125l-0.078125 0q-0.75 0.96875 -1.515625 1.3125q-0.75 0.328125 -1.890625 0.328125q-1.5 0 -2.359375 -0.78125q-0.859375 -0.78125 -0.859375 -2.21875q0 -3.078125 4.921875 -3.234375l1.734375 -0.046875l0 -0.625q0 -1.203125 -0.515625 -1.765625q-0.515625 -0.578125 -1.65625 -0.578125q-1.265625 0 -2.875 0.78125l-0.46875 -1.1875q0.75 -0.40625 1.640625 -0.625q0.90625 -0.234375 1.796875 -0.234375q1.828125 0 2.703125 0.8125q0.875 0.796875 0.875 2.578125l0 6.9375l-1.140625 0zm-3.484375 -1.078125q1.4375 0 2.25 -0.78125q0.828125 -0.796875 0.828125 -2.21875l0 -0.921875l-1.53125 0.0625q-1.84375 0.0625 -2.65625 0.578125q-0.8125 0.5 -0.8125 1.5625q0 0.84375 0.5 1.28125q0.515625 0.4375 1.421875 0.4375zm9.141357 1.078125l-1.53125 0l0 -14.4375l1.53125 0l0 14.4375z"
       fill="#000000" />
    <path
       id="path69"
       fill-rule="nonzero"
       d="m549.47345 240.56223l3.84375 0q2.6875 0 3.890625 0.8125q1.21875 0.796875 1.21875 2.546875q0 1.203125 -0.671875 1.984375q-0.671875 0.78125 -1.96875 1.015625l0 0.09375q3.09375 0.53125 3.09375 3.25q0 1.8125 -1.234375 2.84375q-1.234375 1.015625 -3.4375 1.015625l-4.734375 0l0 -13.5625zm1.578125 5.8125l2.609375 0q1.65625 0 2.390625 -0.515625q0.734375 -0.53125 0.734375 -1.78125q0 -1.140625 -0.8125 -1.640625q-0.8125 -0.515625 -2.59375 -0.515625l-2.328125 0l0 4.453125zm0 1.328125l0 5.078125l2.828125 0q1.640625 0 2.46875 -0.625q0.84375 -0.640625 0.84375 -2.0q0 -1.265625 -0.859375 -1.859375q-0.84375 -0.59375 -2.578125 -0.59375l-2.703125 0zm16.541443 6.421875l-0.3125 -1.453125l-0.078125 0q-0.75 0.96875 -1.515625 1.3125q-0.75 0.328125 -1.890625 0.328125q-1.5 0 -2.359375 -0.78125q-0.859375 -0.78125 -0.859375 -2.21875q0 -3.078125 4.921875 -3.234375l1.734375 -0.046875l0 -0.625q0 -1.203125 -0.515625 -1.765625q-0.515625 -0.578125 -1.65625 -0.578125q-1.265625 0 -2.875 0.78125l-0.46875 -1.1875q0.75 -0.40625 1.640625 -0.625q0.90625 -0.234375 1.796875 -0.234375q1.828125 0 2.703125 0.8125q0.875 0.796875 0.875 2.578125l0 6.9375l-1.140625 0zm-3.484375 -1.078125q1.4375 0 2.25 -0.78125q0.828125 -0.796875 0.828125 -2.21875l0 -0.921875l-1.53125 0.0625q-1.84375 0.0625 -2.65625 0.578125q-0.8125 0.5 -0.8125 1.5625q0 0.84375 0.5 1.28125q0.515625 0.4375 1.421875 0.4375zm11.672607 1.265625q-2.21875 0 -3.4375 -1.359375q-1.203125 -1.359375 -1.203125 -3.84375q0 -2.5625 1.234375 -3.953125q1.234375 -1.390625 3.5 -1.390625q0.734375 0 1.46875 0.171875q0.734375 0.15625 1.15625 0.359375l-0.484375 1.3125q-0.5 -0.203125 -1.109375 -0.328125q-0.609375 -0.140625 -1.0625 -0.140625q-3.109375 0 -3.109375 3.953125q0 1.875 0.75 2.875q0.765625 1.0 2.25 1.0q1.28125 0 2.609375 -0.546875l0 1.359375q-1.015625 0.53125 -2.5625 0.53125zm6.334839 -5.390625q0.390625 -0.5625 1.21875 -1.484375l3.28125 -3.484375l1.828125 0l-4.125 4.34375l4.40625 5.828125l-1.859375 0l-3.59375 -4.8125l-1.15625 1.015625l0 3.796875l-1.515625 0l0 -14.4375l1.515625 0l0 7.65625q0 0.515625 -0.078125 1.578125l0.078125 0zm12.55835 5.390625q-2.25 0 -3.5625 -1.375q-1.296875 -1.375 -1.296875 -3.8125q0 -2.453125 1.203125 -3.90625q1.21875 -1.453125 3.265625 -1.453125q1.90625 0 3.015625 1.265625q1.125 1.25 1.125 3.3125l0 0.96875l-7.015625 0q0.046875 1.796875 0.90625 2.734375q0.859375 0.921875 2.421875 0.921875q1.640625 0 3.25 -0.6875l0 1.375q-0.8125 0.34375 -1.546875 0.5q-0.734375 0.15625 -1.765625 0.15625zm-0.40625 -9.25q-1.234375 0 -1.96875 0.796875q-0.71875 0.796875 -0.84375 2.203125l5.3125 0q0 -1.453125 -0.65625 -2.21875q-0.640625 -0.78125 -1.84375 -0.78125zm13.544922 9.0625l0 -6.578125q0 -1.25 -0.578125 -1.859375q-0.5625 -0.609375 -1.765625 -0.609375q-1.59375 0 -2.34375 0.875q-0.734375 0.859375 -0.734375 2.84375l0 5.328125l-1.53125 0l0 -10.171875l1.25 0l0.25 1.390625l0.0625 0q0.484375 -0.75 1.328125 -1.15625q0.859375 -0.421875 1.90625 -0.421875q1.84375 0 2.765625 0.890625q0.921875 0.890625 0.921875 2.828125l0 6.640625l-1.53125 0zm11.403809 -1.359375l-0.078125 0q-1.0625 1.546875 -3.1875 1.546875q-2.0 0 -3.109375 -1.359375q-1.109375 -1.375 -1.109375 -3.890625q0 -2.515625 1.109375 -3.90625q1.125 -1.390625 3.109375 -1.390625q2.0625 0 3.171875 1.515625l0.125 0l-0.078125 -0.734375l-0.03125 -0.71875l0 -4.140625l1.546875 0l0 14.4375l-1.25 0l-0.21875 -1.359375zm-3.078125 0.25q1.578125 0 2.28125 -0.859375q0.71875 -0.859375 0.71875 -2.765625l0 -0.328125q0 -2.15625 -0.71875 -3.078125q-0.71875 -0.921875 -2.296875 -0.921875q-1.359375 0 -2.078125 1.0625q-0.71875 1.046875 -0.71875 2.96875q0 1.9375 0.71875 2.9375q0.71875 0.984375 2.09375 0.984375z"
       fill="#000000" />
  </g>
  <path
     inkscape:connector-curvature="0"
     inkscape:original-d="m 196.82997,210.40778 c 13.11791,-3.51156 26.42721,-5.80834 38.38185,-13.7781 22.01061,-14.67374 31.69399,-51.18671 40.35014,-72.82709 1.43393,-3.58482 6.88905,-62.291259 6.88905,-69.874636"
     inkscape:path-effect="#path-effect3870"
     id="path3868"
     d="m 196.82997,210.40778 c 13.75031,-0.84866 27.23106,-5.68791 38.38185,-13.7781 11.48855,-8.33525 20.36378,-19.92861 26.79133,-32.58364 6.42756,-12.65502 10.50715,-26.38161 13.55881,-40.24345 5.04374,-22.91064 7.36158,-46.420135 6.88905,-69.874636"
     style="stroke-linejoin:miter;opacity:0.93999999999999995;marker-end:url(#TriangleOutMd);stroke-opacity:1;fill-opacity:1;marker-start:url(#TriangleInMo);stroke:#009d00;stroke-linecap:butt;stroke-miterlimit:10;stroke-dasharray:none;stroke-width:5;fill:none" />
  <path
     inkscape:connector-curvature="0"
     inkscape:original-d="m 205.89729,272.87288 c 13.11791,-3.51156 26.42721,-5.80834 38.38185,-13.7781 22.01061,-14.67374 -1.76711,6.87813 6.88904,-14.76224 1.43393,-3.58482 48.22335,-10.13132 48.22335,-17.7147"
     inkscape:path-effect="#path-effect3870-3"
     id="path3868-6"
     d="m 205.89729,272.87288 c 6.93241,2.49494 14.73265,2.49813 21.66709,0.009 6.93444,-2.48928 12.95183,-7.45264 16.71476,-13.78694 2.77527,-4.67172 4.32063,-9.97367 6.88904,-14.76224 4.42629,-8.25241 11.95495,-14.79274 20.74515,-18.02179 8.7902,-3.22905 18.76236,-3.1176 27.4782,0.30709"
     style="opacity:0.93999999;fill:none;stroke:#009d00;stroke-width:5;stroke-linecap:butt;stroke-linejoin:miter;stroke-miterlimit:10;stroke-opacity:1;stroke-dasharray:none;marker-start:url(#TriangleInMo);marker-end:url(#TriangleOutMd)"
     sodipodi:nodetypes="cssc" />
  <path
     inkscape:connector-curvature="0"
     inkscape:original-d="m 428.65605,271.94418 c 13.11791,-3.51156 26.42721,-5.80834 38.38185,-13.7781 22.01061,-14.67374 -14.82762,-23.22516 6.88904,-14.76224 59.1114,23.03555 51.13591,-8.78706 48.22335,-17.7147"
     inkscape:path-effect="#path-effect3870-3-4"
     id="path3868-6-2"
     d="m 428.65605,271.94418 c 6.93241,2.49494 14.73265,2.49813 21.66709,0.009 6.93444,-2.48928 12.95183,-7.45264 16.71476,-13.78694 2.77527,-4.67172 4.32063,-9.97367 6.88904,-14.76224 4.42629,-8.25241 11.95495,-14.79274 20.74515,-18.02179 8.7902,-3.22905 18.76236,-3.1176 27.4782,0.30709"
     style="opacity:0.93999999;fill:none;stroke:#009d00;stroke-width:5;stroke-linecap:butt;stroke-linejoin:miter;stroke-miterlimit:10;stroke-opacity:1;stroke-dasharray:none;marker-start:url(#TriangleInMo);marker-end:url(#TriangleOutMd)"
     sodipodi:nodetypes="cssc" />
  <path
     inkscape:connector-curvature="0"
     inkscape:original-d="m 360.24412,382.43638 c 1.65737,-13.47827 4.51277,-26.679 1.60076,-40.74849 -5.36152,-25.90444 -27.0882,5.04929 -11.10736,-11.91676 43.49889,-46.18053 11.00553,-50.70476 1.63686,-51.34806"
     inkscape:path-effect="#path-effect3870-3-4-1"
     id="path3868-6-2-3"
     d="m 360.24412,382.43638 c 4.90986,-5.49329 7.83439,-12.72454 8.1236,-20.08656 0.2892,-7.36202 -2.05904,-14.8004 -6.52284,-20.66193 -3.29218,-4.32304 -7.62936,-7.74175 -11.10736,-11.91676 -5.99383,-7.19503 -9.2382,-16.62533 -8.93983,-25.9851 0.29837,-9.35977 4.13677,-18.56429 10.57669,-25.36296"
     style="opacity:0.93999999;fill:none;stroke:#009d00;stroke-width:5;stroke-linecap:butt;stroke-linejoin:miter;stroke-miterlimit:10;stroke-opacity:1;stroke-dasharray:none;marker-start:url(#TriangleInMo);marker-end:url(#TriangleOutMd)"
     sodipodi:nodetypes="cssc" />
  <path
     inkscape:connector-curvature="0"
     inkscape:original-d="m 344.17858,179.63282 c -1.65737,-13.47827 -4.51277,-26.679 -1.60076,-40.74849 5.36152,-25.90444 27.0882,5.04929 11.10736,-11.91676 -43.49889,-46.180535 -11.00553,-50.704765 -1.63686,-51.348065"
     inkscape:path-effect="#path-effect3870-3-4-1-7"
     id="path3868-6-2-3-2"
     d="m 344.17858,179.63282 c -4.90986,-5.49329 -7.83439,-12.72454 -8.1236,-20.08656 -0.2892,-7.36202 2.05904,-14.8004 6.52284,-20.66193 3.29218,-4.32304 7.62936,-7.74175 11.10736,-11.91676 5.99383,-7.19503 9.2382,-16.62533 8.93983,-25.9851 -0.29837,-9.359778 -4.13677,-18.564298 -10.57669,-25.362965"
     style="opacity:0.93999999;fill:none;stroke:#009d00;stroke-width:5;stroke-linecap:butt;stroke-linejoin:miter;stroke-miterlimit:10;stroke-opacity:1;stroke-dasharray:none;marker-start:url(#TriangleInMo);marker-end:url(#TriangleOutMd)"
     sodipodi:nodetypes="cssc" />
</svg>
