<?xml version="1.0" encoding="UTF-8" standalone="no"?>
<svg
   xmlns:dc="http://purl.org/dc/elements/1.1/"
   xmlns:cc="http://creativecommons.org/ns#"
   xmlns:rdf="http://www.w3.org/1999/02/22-rdf-syntax-ns#"
   xmlns:svg="http://www.w3.org/2000/svg"
   xmlns="http://www.w3.org/2000/svg"
   xmlns:sodipodi="http://sodipodi.sourceforge.net/DTD/sodipodi-0.dtd"
   xmlns:inkscape="http://www.inkscape.org/namespaces/inkscape"
   version="1.1"
   viewBox="0.0 0.0 683.0 422.0"
   fill="none"
   stroke="none"
   stroke-linecap="square"
   stroke-miterlimit="10"
   id="svg2"
   inkscape:version="0.48.4 r9939"
   width="100%"
   height="100%"
   sodipodi:docname="With-delay-local-server.svg">
  <sodipodi:namedview
     pagecolor="#ffffff"
     bordercolor="#666666"
     borderopacity="1"
     objecttolerance="10"
     gridtolerance="10"
     guidetolerance="10"
     inkscape:pageopacity="0"
     inkscape:pageshadow="2"
     inkscape:window-width="1440"
     inkscape:window-height="834"
     id="namedview71"
     showgrid="false"
     inkscape:zoom="1.0161054"
     inkscape:cx="388.99593"
     inkscape:cy="248.99217"
     inkscape:window-x="0"
     inkscape:window-y="27"
     inkscape:window-maximized="1"
     inkscape:current-layer="svg2" />
  <metadata
     id="metadata75">
    <rdf:RDF>
      <cc:Work
         rdf:about="">
        <dc:format>image/svg+xml</dc:format>
        <dc:type
           rdf:resource="http://purl.org/dc/dcmitype/StillImage" />
        <dc:title></dc:title>
      </cc:Work>
    </rdf:RDF>
  </metadata>
  <defs
     id="defs73">
    <marker
       style="overflow:visible"
       id="TriangleOutM"
       refX="0.0"
       refY="0.0"
       orient="auto"
       inkscape:stockid="TriangleOutM">
      <path
         transform="scale(0.4)"
         style="fill-rule:evenodd;stroke:#000000;stroke-width:1.0pt"
         d="M 5.77,0.0 L -2.88,5.0 L -2.88,-5.0 L 5.77,0.0 z "
         id="path4021" />
    </marker>
    <marker
       style="overflow:visible"
       id="TriangleInM"
       refX="0.0"
       refY="0.0"
       orient="auto"
       inkscape:stockid="TriangleInM">
      <path
         transform="scale(-0.4)"
         style="fill-rule:evenodd;stroke:#000000;stroke-width:1.0pt"
         d="M 5.77,0.0 L -2.88,5.0 L -2.88,-5.0 L 5.77,0.0 z "
         id="path4012" />
    </marker>
    <marker
       style="overflow:visible"
       id="Arrow1Mstart"
       refX="0.0"
       refY="0.0"
       orient="auto"
       inkscape:stockid="Arrow1Mstart">
      <path
         transform="scale(0.4) translate(10,0)"
         style="fill-rule:evenodd;stroke:#000000;stroke-width:1.0pt"
         d="M 0.0,0.0 L 5.0,-5.0 L -12.5,0.0 L 5.0,5.0 L 0.0,0.0 z "
         id="path3882" />
    </marker>
    <marker
       style="overflow:visible"
       id="Arrow1Lstart"
       refX="0.0"
       refY="0.0"
       orient="auto"
       inkscape:stockid="Arrow1Lstart">
      <path
         transform="scale(0.8) translate(12.5,0)"
         style="fill-rule:evenodd;stroke:#000000;stroke-width:1.0pt"
         d="M 0.0,0.0 L 5.0,-5.0 L -12.5,0.0 L 5.0,5.0 L 0.0,0.0 z "
         id="path3876" />
    </marker>
    <inkscape:path-effect
       is_visible="true"
       id="path-effect3870"
       effect="spiro" />
    <inkscape:path-effect
       is_visible="true"
       id="path-effect3866"
       effect="spiro" />
    <inkscape:path-effect
       is_visible="true"
       id="path-effect3862"
       effect="spiro" />
    <inkscape:path-effect
       is_visible="true"
       id="path-effect3090"
       effect="spiro" />
    <inkscape:path-effect
       is_visible="true"
       id="path-effect3086"
       effect="spiro" />
    <inkscape:path-effect
       is_visible="true"
       id="path-effect3082"
       effect="spiro" />
    <inkscape:path-effect
       is_visible="true"
       id="path-effect3078"
       effect="spiro" />
    <inkscape:path-effect
       is_visible="true"
       id="path-effect3074"
       effect="spiro" />
    <inkscape:path-effect
       is_visible="true"
       id="path-effect3070"
       effect="spiro" />
    <inkscape:path-effect
       is_visible="true"
       id="path-effect3066"
       effect="spiro" />
    <inkscape:path-effect
       is_visible="true"
       id="path-effect3062"
       effect="spiro" />
    <inkscape:path-effect
       is_visible="true"
       id="path-effect3058"
       effect="spiro" />
    <inkscape:path-effect
       is_visible="true"
       id="path-effect3054"
       effect="spiro" />
    <marker
       style="overflow:visible"
       id="TriangleInMo"
       refX="0.0"
       refY="0.0"
       orient="auto"
       inkscape:stockid="TriangleInMo">
      <path
         transform="scale(-0.4)"
         style="stroke:#009d00;stroke-width:1.0pt;fill:#009d00;fill-rule:evenodd"
         d="M 5.77,0.0 L -2.88,5.0 L -2.88,-5.0 L 5.77,0.0 z "
         id="path5273" />
    </marker>
    <marker
       style="overflow:visible"
       id="TriangleOutMd"
       refX="0.0"
       refY="0.0"
       orient="auto"
       inkscape:stockid="TriangleOutMd">
      <path
         transform="scale(0.4)"
         style="stroke:#009d00;stroke-width:1.0pt;fill:#009d00;fill-rule:evenodd"
         d="M 5.77,0.0 L -2.88,5.0 L -2.88,-5.0 L 5.77,0.0 z "
         id="path5276" />
    </marker>
    <marker
       style="overflow:visible"
       id="TriangleInMo-6"
       refX="0"
       refY="0"
       orient="auto"
       inkscape:stockid="TriangleInMo">
      <path
         inkscape:connector-curvature="0"
         transform="scale(-0.4,-0.4)"
         style="fill:#009d00;fill-rule:evenodd;stroke:#009d00;stroke-width:1pt"
         d="m 5.77,0 -8.65,5 0,-10 8.65,5 z"
         id="path5273-6" />
    </marker>
    <marker
       style="overflow:visible"
       id="TriangleOutMd-4"
       refX="0"
       refY="0"
       orient="auto"
       inkscape:stockid="TriangleOutMd">
      <path
         inkscape:connector-curvature="0"
         transform="scale(0.4,0.4)"
         style="fill:#009d00;fill-rule:evenodd;stroke:#009d00;stroke-width:1pt"
         d="m 5.77,0 -8.65,5 0,-10 8.65,5 z"
         id="path5276-2" />
    </marker>
    <inkscape:path-effect
       is_visible="true"
       id="path-effect3870-3"
       effect="spiro" />
    <marker
       style="overflow:visible"
       id="TriangleInMo-3"
       refX="0"
       refY="0"
       orient="auto"
       inkscape:stockid="TriangleInMo">
      <path
         inkscape:connector-curvature="0"
         transform="scale(-0.4,-0.4)"
         style="fill:#009d00;fill-rule:evenodd;stroke:#009d00;stroke-width:1pt"
         d="m 5.77,0 -8.65,5 0,-10 8.65,5 z"
         id="path5273-63" />
    </marker>
    <marker
       style="overflow:visible"
       id="TriangleOutMd-3"
       refX="0"
       refY="0"
       orient="auto"
       inkscape:stockid="TriangleOutMd">
      <path
         inkscape:connector-curvature="0"
         transform="scale(0.4,0.4)"
         style="fill:#009d00;fill-rule:evenodd;stroke:#009d00;stroke-width:1pt"
         d="m 5.77,0 -8.65,5 0,-10 8.65,5 z"
         id="path5276-6" />
    </marker>
    <inkscape:path-effect
       is_visible="true"
       id="path-effect3870-3-4"
       effect="spiro" />
    <marker
       style="overflow:visible"
       id="TriangleInMo-8"
       refX="0"
       refY="0"
       orient="auto"
       inkscape:stockid="TriangleInMo">
      <path
         inkscape:connector-curvature="0"
         transform="scale(-0.4,-0.4)"
         style="fill:#009d00;fill-rule:evenodd;stroke:#009d00;stroke-width:1pt"
         d="m 5.77,0 -8.65,5 0,-10 8.65,5 z"
         id="path5273-7" />
    </marker>
    <marker
       style="overflow:visible"
       id="TriangleOutMd-37"
       refX="0"
       refY="0"
       orient="auto"
       inkscape:stockid="TriangleOutMd">
      <path
         inkscape:connector-curvature="0"
         transform="scale(0.4,0.4)"
         style="fill:#009d00;fill-rule:evenodd;stroke:#009d00;stroke-width:1pt"
         d="m 5.77,0 -8.65,5 0,-10 8.65,5 z"
         id="path5276-5" />
    </marker>
    <inkscape:path-effect
       is_visible="true"
       id="path-effect3870-3-4-1"
       effect="spiro" />
    <marker
       style="overflow:visible"
       id="TriangleInMo-1"
       refX="0"
       refY="0"
       orient="auto"
       inkscape:stockid="TriangleInMo">
      <path
         inkscape:connector-curvature="0"
         transform="scale(-0.4,-0.4)"
         style="fill:#009d00;fill-rule:evenodd;stroke:#009d00;stroke-width:1pt"
         d="m 5.77,0 -8.65,5 0,-10 8.65,5 z"
         id="path5273-2" />
    </marker>
    <marker
       style="overflow:visible"
       id="TriangleOutMd-1"
       refX="0"
       refY="0"
       orient="auto"
       inkscape:stockid="TriangleOutMd">
      <path
         inkscape:connector-curvature="0"
         transform="scale(0.4,0.4)"
         style="fill:#009d00;fill-rule:evenodd;stroke:#009d00;stroke-width:1pt"
         d="m 5.77,0 -8.65,5 0,-10 8.65,5 z"
         id="path5276-1" />
    </marker>
    <inkscape:path-effect
       is_visible="true"
       id="path-effect3870-3-4-1-7"
       effect="spiro" />
  </defs>
  <clipPath
     id="p.0">
    <path
       id="path5"
       clip-rule="nonzero"
       d="m0 0l683.0 0l0 422.0l-683.0 0l0 -422.0z" />
  </clipPath>
  <path
     style="fill:#000000;fill-opacity:0;fill-rule:nonzero"
     inkscape:connector-curvature="0"
     d="m 0,0 683.8845,0 0,422.9134 -683.8845,0 z"
     id="path9" />
  <path
     style="fill:#cfe2f3;fill-rule:nonzero"
     inkscape:connector-curvature="0"
     d="m 39.07472,28.679653 0,0 C 35.584924,21.72483 47.042615,14.839976 68.58587,10.94659 90.129129,7.0532032 117.97973,6.8341 140.31964,10.382253 l 0,0 c 7.91347,-4.043823 22.39745,-6.8358043 39.0708,-7.5314228 16.67334,-0.6956186 33.57773,0.786828 45.59988,3.9989285 l 0,0 c 6.74126,-3.66639 19.97785,-6.1297355 35.01273,-6.5159135 15.03491,-0.3861781 29.74026,1.3594649 38.89792,4.617484 l 0,0 c 12.17908,-3.886364 31.5563,-5.522685 49.74704,-4.2009172 18.19074,1.3217676 31.92777,5.3642225 35.26697,10.378171 l 0,0 c 14.92145,1.103744 27.35071,3.909607 34.07641,7.692645 6.72574,3.783037 7.0882,8.17214 0.99369,12.033308 l 0,0 c 14.69326,5.185968 18.1304,12.096209 9.02871,18.151941 -9.10168,6.055733 -29.37478,10.347157 -53.25369,11.272781 -0.1683,5.683525 -11.66238,10.898659 -30.05188,13.635254 -18.3895,2.736603 -40.80289,2.567345 -58.60101,-0.442535 -7.58106,6.807007 -28.91919,11.815529 -54.79558,12.86171 -25.87637,1.046188 -51.65212,-2.057518 -66.19116,-7.970207 -17.82182,2.914383 -39.20654,3.753921 -59.33017,2.329239 C 85.666666,79.268036 68.49923,75.699143 58.160608,70.7911 l 0,0 C 39.948942,71.369034 22.340778,68.810257 14.074978,64.38469 5.8091829,59.959126 8.6453495,54.608857 21.175899,50.989209 l 0,0 C 4.9306185,48.396264 -3.3587015,43.251004 0.63049146,38.236478 4.6196849,33.221951 19.983427,29.474471 38.710131,28.948199 z"
     id="path11" />
  <path
     style="fill:#000000;fill-opacity:0;fill-rule:nonzero"
     inkscape:connector-curvature="0"
     d="m 21.180496,50.988712 0,0 c 7.666199,1.223618 16.522453,1.778679 25.37967,1.59066 m 11.601051,18.211674 c 3.808929,-0.120872 7.542404,-0.376839 11.104141,-0.761299 m 95.850392,8.333366 c -2.67895,-1.08947 -4.9219,-2.253655 -6.69066,-3.472733 m 127.68202,-1.418975 0,0 c 1.38215,-1.241021 2.27765,-2.518296 2.6716,-3.810517 m 85.97794,-9.381725 c 0.1792,-6.050987 -12.49417,-11.591331 -32.57648,-14.241295 m 76.80106,-15.182793 c -3.25226,2.060475 -8.21722,3.888294 -14.50555,5.340145 m -20.5615,-25.066637 0,0 c 0.55414,0.832067 0.81058,1.676639 0.76581,2.52201 m -85.77841,-8.6990129 0,0 c -3.03805,0.9694547 -5.54105,2.0528078 -7.43097,3.2163267 m -66.48036,-1.3183203 0,0 c -1.61903,0.8805485 -2.82802,1.8123198 -3.5991,2.7738495 m -81.07282,0.758718 0,0 c 4.72711,0.750786 9.10033,1.654439 13.02359,2.691105 m -114.267199,15.606393 0,0 c 0.480984,0.958556 1.240963,1.905293 2.272823,2.831353"
     id="path13" />
  <path
     style="stroke:#000000;stroke-width:2;stroke-linecap:butt;stroke-linejoin:round"
     inkscape:connector-curvature="0"
     d="m 39.07472,28.679653 0,0 C 35.584924,21.72483 47.042615,14.839976 68.58587,10.94659 90.129129,7.0532032 117.97973,6.8341 140.31964,10.382253 l 0,0 c 7.91347,-4.043823 22.39745,-6.8358043 39.0708,-7.5314228 16.67334,-0.6956186 33.57773,0.786828 45.59988,3.9989285 l 0,0 c 6.74126,-3.66639 19.97785,-6.1297355 35.01273,-6.5159135 15.03491,-0.3861781 29.74026,1.3594649 38.89792,4.617484 l 0,0 c 12.17908,-3.886364 31.5563,-5.522685 49.74704,-4.2009172 18.19074,1.3217676 31.92777,5.3642225 35.26697,10.378171 l 0,0 c 14.92145,1.103744 27.35071,3.909607 34.07641,7.692645 6.72574,3.783037 7.0882,8.17214 0.99369,12.033308 l 0,0 c 14.69326,5.185968 18.1304,12.096209 9.02871,18.151941 -9.10168,6.055733 -29.37478,10.347157 -53.25369,11.272781 -0.1683,5.683525 -11.66238,10.898659 -30.05188,13.635254 -18.3895,2.736603 -40.80289,2.567345 -58.60101,-0.442535 -7.58106,6.807007 -28.91919,11.815529 -54.79558,12.86171 -25.87637,1.046188 -51.65212,-2.057518 -66.19116,-7.970207 -17.82182,2.914383 -39.20654,3.753921 -59.33017,2.329239 C 85.666666,79.268036 68.49923,75.699143 58.160608,70.7911 l 0,0 C 39.948942,71.369034 22.340778,68.810257 14.074978,64.38469 5.8091829,59.959126 8.6453495,54.608857 21.175899,50.989209 l 0,0 C 4.9306185,48.396264 -3.3587015,43.251004 0.63049146,38.236478 4.6196849,33.221951 19.983427,29.474471 38.710131,28.948199 z"
     id="path15" />
  <path
     style="stroke:#000000;stroke-width:2;stroke-linecap:butt;stroke-linejoin:round"
     inkscape:connector-curvature="0"
     d="m 21.180496,50.988712 0,0 c 7.666199,1.223618 16.522453,1.778679 25.37967,1.59066 m 11.601051,18.211674 c 3.808929,-0.120872 7.542404,-0.376839 11.104141,-0.761299 m 95.850392,8.333366 c -2.67895,-1.08947 -4.9219,-2.253655 -6.69066,-3.472733 m 127.68202,-1.418975 0,0 c 1.38215,-1.241021 2.27765,-2.518296 2.6716,-3.810517 m 85.97794,-9.381725 c 0.1792,-6.050987 -12.49417,-11.591331 -32.57648,-14.241295 m 76.80106,-15.182793 c -3.25226,2.060475 -8.21722,3.888294 -14.50555,5.340145 m -20.5615,-25.066637 0,0 c 0.55414,0.832067 0.81058,1.676639 0.76581,2.52201 m -85.77841,-8.6990129 0,0 c -3.03805,0.9694547 -5.54105,2.0528078 -7.43097,3.2163267 m -66.48036,-1.3183203 0,0 c -1.61903,0.8805485 -2.82802,1.8123198 -3.5991,2.7738495 m -81.07282,0.758718 0,0 c 4.72711,0.750786 9.10033,1.654439 13.02359,2.691105 m -114.267199,15.606393 0,0 c 0.480984,0.958556 1.240963,1.905293 2.272823,2.831353"
     id="path17" />
  <path
     style="fill:#000000;fill-rule:nonzero"
     inkscape:connector-curvature="0"
     d="m 167.97165,48.031494 0,-13.5625 1.57812,0 0,13.5625 -1.57812,0 z m 11.9359,0 0,-6.578125 q 0,-1.25 -0.57813,-1.859375 -0.5625,-0.609375 -1.76562,-0.609375 -1.59375,0 -2.34375,0.875 -0.73438,0.859375 -0.73438,2.84375 l 0,5.328125 -1.53125,0 0,-10.171875 1.25,0 0.25,1.390625 0.0625,0 q 0.48438,-0.75 1.32813,-1.15625 0.85937,-0.421875 1.90625,-0.421875 1.84375,0 2.76562,0.890625 0.92188,0.890625 0.92188,2.828125 l 0,6.640625 -1.53125,0 z m 7.77875,-1.078125 q 0.40625,0 0.78125,-0.0625 0.39062,-0.0625 0.60937,-0.125 l 0,1.171875 q -0.25,0.125 -0.75,0.203125 -0.48437,0.07813 -0.87498,0.07813 -2.9375,0 -2.9375,-3.109375 l 0,-6.046875 -1.46875,0 0,-0.75 1.46875,-0.640625 0.64062,-2.171875 0.89063,0 0,2.359375 2.95311,0 0,1.203125 -2.95311,0 0,5.984375 q 0,0.921875 0.4375,1.421875 0.4375,0.484375 1.20311,0.484375 z m 7.58618,1.265625 q -2.25,0 -3.5625,-1.375 -1.29688,-1.375 -1.29688,-3.8125 0,-2.453125 1.20313,-3.90625 1.21875,-1.453125 3.26562,-1.453125 1.90625,0 3.01563,1.265625 1.125,1.25 1.125,3.3125 l 0,0.96875 -7.01563,0 q 0.0469,1.796875 0.90625,2.734375 0.85938,0.921875 2.42188,0.921875 1.64062,0 3.25,-0.6875 l 0,1.375 q -0.8125,0.34375 -1.54688,0.5 -0.73437,0.15625 -1.76562,0.15625 z m -0.40625,-9.25 q -1.23438,0 -1.96875,0.796875 -0.71875,0.796875 -0.84375,2.203125 l 5.3125,0 q 0,-1.453125 -0.65625,-2.21875 -0.64063,-0.78125 -1.84375,-0.78125 z m 11.21679,-1.296875 q 0.6875,0 1.21875,0.109375 l -0.20312,1.4375 q -0.64063,-0.140625 -1.125,-0.140625 -1.23438,0 -2.10938,1 -0.875,1 -0.875,2.5 l 0,5.453125 -1.53125,0 0,-10.171875 1.26563,0 0.17187,1.890625 0.0781,0 q 0.5625,-1 1.35937,-1.53125 0.79688,-0.546875 1.75,-0.546875 z m 9.94367,10.359375 0,-6.578125 q 0,-1.25 -0.57813,-1.859375 -0.5625,-0.609375 -1.76562,-0.609375 -1.59375,0 -2.34375,0.875 -0.73438,0.859375 -0.73438,2.84375 l 0,5.328125 -1.53125,0 0,-10.171875 1.25,0 0.25,1.390625 0.0625,0 q 0.48438,-0.75 1.32813,-1.15625 0.85937,-0.421875 1.90625,-0.421875 1.84375,0 2.76562,0.890625 0.92188,0.890625 0.92188,2.828125 l 0,6.640625 -1.53125,0 z m 8.77878,0.1875 q -2.25,0 -3.5625,-1.375 -1.29688,-1.375 -1.29688,-3.8125 0,-2.453125 1.20313,-3.90625 1.21875,-1.453125 3.26562,-1.453125 1.90625,0 3.01563,1.265625 1.125,1.25 1.125,3.3125 l 0,0.96875 -7.01563,0 q 0.0469,1.796875 0.90625,2.734375 0.85938,0.921875 2.42188,0.921875 1.64062,0 3.25,-0.6875 l 0,1.375 q -0.8125,0.34375 -1.54688,0.5 -0.73437,0.15625 -1.76562,0.15625 z m -0.40625,-9.25 q -1.23438,0 -1.96875,0.796875 -0.71875,0.796875 -0.84375,2.203125 l 5.3125,0 q 0,-1.453125 -0.65625,-2.21875 -0.64063,-0.78125 -1.84375,-0.78125 z m 9.87304,7.984375 q 0.40625,0 0.78125,-0.0625 0.39063,-0.0625 0.60938,-0.125 l 0,1.171875 q -0.25,0.125 -0.75,0.203125 -0.48438,0.07813 -0.875,0.07813 -2.9375,0 -2.9375,-3.109375 l 0,-6.046875 -1.46875,0 0,-0.75 1.46875,-0.640625 0.64062,-2.171875 0.89063,0 0,2.359375 2.95312,0 0,1.203125 -2.95312,0 0,5.984375 q 0,0.921875 0.4375,1.421875 0.4375,0.484375 1.20312,0.484375 z"
     id="path19" />
  <path
     style="fill:#cfe2f3;fill-rule:nonzero"
     inkscape:connector-curvature="0"
     d="m 0,182.91339 206.20473,0 0,124.66141 -206.20473,0 z"
     id="path21" />
  <path
     style="stroke:#000000;stroke-width:2;stroke-linecap:butt;stroke-linejoin:round"
     inkscape:connector-curvature="0"
     d="m 0,182.91339 206.20473,0 0,124.66141 -206.20473,0 z"
     id="path23" />
  <path
     style="fill:#ffe599;fill-rule:nonzero"
     inkscape:connector-curvature="0"
     d="m 25.629921,225.82437 0,0 c 0,-6.32603 5.128263,-11.4543 11.454296,-11.4543 l 134.382753,0 c 3.03787,0 5.95131,1.2068 8.09941,3.35489 2.1481,2.1481 3.35489,5.06155 3.35489,8.09941 l 0,45.81583 c 0,6.32602 -5.12827,11.45428 -11.4543,11.45428 l -134.382753,0 c -6.326033,0 -11.454296,-5.12826 -11.454296,-11.45428 z"
     id="path25" />
  <path
     style="stroke:#000000;stroke-width:2;stroke-linecap:butt;stroke-linejoin:round"
     inkscape:connector-curvature="0"
     d="m 25.629921,225.82437 0,0 c 0,-6.32603 5.128263,-11.4543 11.454296,-11.4543 l 134.382753,0 c 3.03787,0 5.95131,1.2068 8.09941,3.35489 2.1481,2.1481 3.35489,5.06155 3.35489,8.09941 l 0,45.81583 c 0,6.32602 -5.12827,11.45428 -11.4543,11.45428 l -134.382753,0 c -6.326033,0 -11.454296,-5.12826 -11.454296,-11.45428 z"
     id="path27" />
  <path
     style="fill:#990000;fill-rule:nonzero"
     inkscape:connector-curvature="0"
     d="m 70.61941,247.80853 -0.640625,2.14062 2.390625,0 -0.171875,1.92188 -2.75,0 -1.078125,3.78125 -2.046875,0 1.09375,-3.78125 -1.796875,0 -1.078125,3.78125 -1.984375,0 1.046875,-3.78125 -2.21875,0 0.171875,-1.92188 2.578125,0 0.640625,-2.14062 -2.34375,0 0.171875,-1.9375 2.6875,0 1.09375,-3.78125 2.015625,0 -1.078125,3.78125 1.84375,0 1.078125,-3.78125 1.984375,0 -1.0625,3.78125 2.203125,0 -0.15625,1.9375 -2.59375,0 z m -4.484375,2.14062 1.828125,0 0.640625,-2.14062 -1.8125,0 -0.65625,2.14062 z m 12.739365,-2.375 3.46875,-5.48437 3.171875,0 -5.734375,8.375 -1.09375,5.1875 -2.8125,0 1.109375,-5.1875 -2.203125,-8.375 2.90625,0 1.1875,5.48437 z m 12.177719,1.625 q 0,-1.82812 -1.328125,-1.82812 -0.6875,0 -1.25,0.5625 -0.546875,0.5625 -0.90625,1.65625 -0.34375,1.09375 -0.34375,2.26562 0,1.70313 1.390625,1.70313 0.703125,0 1.25,-0.5625 0.5625,-0.57813 0.875,-1.59375 0.3125,-1.01563 0.3125,-2.20313 z m 2.8125,0 q 0,1.95313 -0.65625,3.46875 -0.65625,1.51563 -1.890625,2.34375 -1.234375,0.82813 -2.921875,0.82813 -1.8125,0 -2.90625,-1.09375 -1.078125,-1.09375 -1.078125,-2.89063 0,-1.98437 0.65625,-3.53125 0.671875,-1.54687 1.921875,-2.39062 1.265625,-0.84375 2.9375,-0.84375 1.828125,0 2.875,1.09375 1.0625,1.09375 1.0625,3.01562 z m 3.069428,-3.92187 2.78125,0 -1.265625,6.0625 q -0.15625,0.625 -0.15625,1.10937 0,1.14063 1.015625,1.14063 0.843753,0 1.531253,-1.0625 0.70312,-1.0625 1.10937,-2.95313 l 0.90625,-4.29687 2.79688,0 -2.20313,10.375 -2.14062,0 0.20312,-1.92188 -0.0625,0 q -1.34375,2.10938 -3.281248,2.10938 -1.28125,0 -1.96875,-0.76563 -0.671875,-0.76562 -0.671875,-2.21875 0,-0.85937 0.21875,-1.96875 l 1.1875,-5.60937 z m 16.643443,-0.1875 q 0.54688,0 0.89063,0.0937 l -0.60938,2.6875 q -0.42187,-0.14063 -0.9375,-0.14063 -1.0625,0 -1.875,0.85938 -0.8125,0.84375 -1.15625,2.42187 l -0.98437,4.64063 -2.79688,0 2.20313,-10.375 2.125,0 -0.1875,1.92187 0.0469,0 q 1.375,-2.10937 3.28125,-2.10937 z m 7.85239,7.32812 -4.39062,0 -1.59375,3.23438 -2.96875,0 7.10937,-13.625 3.45313,0 1.375,13.625 -2.76563,0 -0.21875,-3.23438 z m -0.14062,-2.40625 -0.23438,-3.25 q -0.0937,-1.21875 -0.0937,-2.34375 l 0,-0.32812 q -0.40625,1.10937 -1.01562,2.34375 l -1.75,3.57812 3.09375,0 z m 11.5898,-4.92187 q 1.34375,0 2.125,1 0.79688,0.98437 0.79688,2.78125 0,1.76562 -0.64063,3.40625 -0.64062,1.64062 -1.75,2.60937 -1.09375,0.95313 -2.42187,0.95313 -0.76563,0 -1.32813,-0.34375 -0.54687,-0.34375 -1.03125,-1.17188 l -0.0625,0 q -0.10937,1.48438 -0.40625,2.73438 l -0.67187,3.15625 -2.78125,0 3.17188,-14.9375 2.12499,0 -0.15625,1.57813 0.0937,0 q 1.26563,-1.76563 2.9375,-1.76563 z m -1.125,2.26562 q -0.625,0 -1.21875,0.625 -0.59375,0.625 -0.95312,1.67188 -0.35938,1.03125 -0.35938,2.29687 0,0.75 0.34375,1.20313 0.34375,0.4375 0.95313,0.4375 0.625,0 1.1875,-0.64063 0.5625,-0.64062 0.90625,-1.75 0.35937,-1.125 0.35937,-2.21875 0,-1.625 -1.21875,-1.625 z m 12.22948,-2.26562 q 1.34375,0 2.125,1 0.79687,0.98437 0.79687,2.78125 0,1.76562 -0.64062,3.40625 -0.64063,1.64062 -1.75,2.60937 -1.09375,0.95313 -2.42188,0.95313 -0.76562,0 -1.32812,-0.34375 -0.54688,-0.34375 -1.03125,-1.17188 l -0.0625,0 q -0.10938,1.48438 -0.40625,2.73438 l -0.67188,3.15625 -2.78125,0 3.17188,-14.9375 2.125,0 -0.15625,1.57813 0.0937,0 q 1.26562,-1.76563 2.9375,-1.76563 z m -1.125,2.26562 q -0.625,0 -1.21875,0.625 -0.59375,0.625 -0.95313,1.67188 -0.35937,1.03125 -0.35937,2.29687 0,0.75 0.34375,1.20313 0.34375,0.4375 0.95312,0.4375 0.625,0 1.1875,-0.64063 0.5625,-0.64062 0.90625,-1.75 0.35938,-1.125 0.35938,-2.21875 0,-1.625 -1.21875,-1.625 z"
     id="path29" />
  <path
     style="fill:#999999;fill-rule:nonzero"
     inkscape:connector-curvature="0"
     d="m 1.1653544,182.91339 205.0393656,0 0,16.31496 -205.0393656,0 z"
     id="path31" />
  <path
     style="stroke:#000000;stroke-width:2;stroke-linecap:butt;stroke-linejoin:round"
     inkscape:connector-curvature="0"
     d="m 1.1653544,182.91339 205.0393656,0 0,16.31496 -205.0393656,0 z"
     id="path33" />
  <path
     style="fill:#cfe2f3;fill-rule:nonzero"
     inkscape:connector-curvature="0"
     d="m 182.92126,182.91602 23.30708,0 0,16.31496 -23.30708,0 z"
     id="path35" />
  <path
     style="stroke:#000000;stroke-width:2;stroke-linecap:butt;stroke-linejoin:round"
     inkscape:connector-curvature="0"
     d="m 182.92126,182.91602 23.30708,0 0,16.31496 -23.30708,0 z"
     id="path37" />
  <path
     style="fill:#ff0000;fill-rule:nonzero"
     inkscape:connector-curvature="0"
     d="m 196.14001,192.07661 2.53125,3.26562 0.20312,0 q 0.1875,0 0.26563,0.0781 0.0937,0.0625 0.0937,0.1875 0,0.10937 -0.0937,0.1875 -0.0781,0.0781 -0.26563,0.0781 l -1.70312,0 q -0.20313,0 -0.28125,-0.0781 -0.0781,-0.0781 -0.0781,-0.1875 0,-0.125 0.0781,-0.1875 0.0781,-0.0781 0.28125,-0.0781 l 0.84375,0 -2.20313,-2.82812 -2.17187,2.82812 0.84375,0 q 0.1875,0 0.26562,0.0781 0.0937,0.0625 0.0937,0.1875 0,0.10937 -0.0937,0.1875 -0.0781,0.0781 -0.26562,0.0781 l -1.70313,0 q -0.1875,0 -0.26562,-0.0781 -0.0781,-0.0781 -0.0781,-0.1875 0,-0.0937 0.0469,-0.15625 0.0469,-0.0781 0.10937,-0.0937 0.0625,-0.0156 0.39063,-0.0156 l 2.5,-3.26562 -2.39063,-3.09375 -0.1875,0 q -0.20312,0 -0.28125,-0.0781 -0.0781,-0.0781 -0.0781,-0.1875 0,-0.125 0.0781,-0.1875 0.0781,-0.0781 0.28125,-0.0781 l 1.45313,0 q 0.1875,0 0.26562,0.0781 0.0937,0.0625 0.0937,0.1875 0,0.10938 -0.0937,0.1875 -0.0781,0.0781 -0.26562,0.0781 l -0.60938,0 2.0625,2.65625 2.04688,-2.65625 -0.59375,0 q -0.20313,0 -0.28125,-0.0781 -0.0781,-0.0781 -0.0781,-0.1875 0,-0.125 0.0781,-0.1875 0.0781,-0.0781 0.28125,-0.0781 l 1.45312,0 q 0.1875,0 0.26563,0.0781 0.0937,0.0625 0.0937,0.1875 0,0.10938 -0.0937,0.1875 -0.0781,0.0781 -0.26563,0.0781 l -0.20312,0 -2.375,3.09375 z"
     id="path39" />
  <path
     style="stroke:#009d00;stroke-width:5;stroke-linecap:butt;stroke-linejoin:round;stroke-opacity:1;stroke-miterlimit:10;stroke-dasharray:none;fill:#00eb00;fill-opacity:1"
     inkscape:connector-curvature="0"
     d="m 275.53018,182.91339 157.29135,0 0,109.51181 -157.29135,0 z"
     id="path43" />
  <path
     style="fill:#000000;fill-rule:nonzero"
     inkscape:connector-curvature="0"
     d="m 333.5712,233.5893 0,-13.5625 1.57812,0 0,12.14062 5.98438,0 0,1.42188 -7.5625,0 z m 18.23029,-5.09375 q 0,2.48437 -1.25,3.89062 -1.25,1.39063 -3.45313,1.39063 -1.375,0 -2.4375,-0.64063 -1.04687,-0.64062 -1.625,-1.82812 -0.57812,-1.20313 -0.57812,-2.8125 0,-2.48438 1.23437,-3.875 1.25,-1.39063 3.46875,-1.39063 2.125,0 3.375,1.42188 1.26563,1.42187 1.26563,3.84375 z m -7.75,0 q 0,1.95312 0.78125,2.96875 0.78125,1.01562 2.29687,1.01562 1.51563,0 2.29688,-1.01562 0.78125,-1.01563 0.78125,-2.96875 0,-1.9375 -0.78125,-2.9375 -0.78125,-1.01563 -2.3125,-1.01563 -1.51563,0 -2.29688,1 -0.76562,0.98438 -0.76562,2.95313 z m 14.3153,5.28125 q -2.21875,0 -3.4375,-1.35938 -1.20312,-1.35937 -1.20312,-3.84375 0,-2.5625 1.23437,-3.95312 1.23438,-1.39063 3.5,-1.39063 0.73438,0 1.46875,0.17188 0.73438,0.15625 1.15625,0.35937 l -0.48437,1.3125 q -0.5,-0.20312 -1.10938,-0.32812 -0.60937,-0.14063 -1.0625,-0.14063 -3.10937,0 -3.10937,3.95313 0,1.875 0.75,2.875 0.76562,1 2.25,1 1.28125,0 2.60937,-0.54688 l 0,1.35938 q -1.01562,0.53125 -2.5625,0.53125 z m 11.06928,-0.1875 -0.3125,-1.45313 -0.0781,0 q -0.75,0.96875 -1.51562,1.3125 -0.75,0.32813 -1.89063,0.32813 -1.5,0 -2.35937,-0.78125 -0.85938,-0.78125 -0.85938,-2.21875 0,-3.07813 4.92188,-3.23438 l 1.73437,-0.0469 0,-0.625 q 0,-1.20313 -0.51562,-1.76563 -0.51563,-0.57812 -1.65625,-0.57812 -1.26563,0 -2.875,0.78125 l -0.46875,-1.1875 q 0.75,-0.40625 1.64062,-0.625 0.90625,-0.23438 1.79688,-0.23438 1.82812,0 2.70312,0.8125 0.875,0.79688 0.875,2.57813 l 0,6.9375 -1.14062,0 z m -3.48438,-1.07813 q 1.4375,0 2.25,-0.78125 0.82813,-0.79687 0.82813,-2.21875 l 0,-0.92187 -1.53125,0.0625 q -1.84375,0.0625 -2.65625,0.57812 -0.8125,0.5 -0.8125,1.5625 0,0.84375 0.5,1.28125 0.51562,0.4375 1.42187,0.4375 z m 9.14133,1.07813 -1.53125,0 0,-14.4375 1.53125,0 0,14.4375 z"
     id="path45" />
  <path
     style="fill:#000000;fill-rule:nonzero"
     inkscape:connector-curvature="0"
     d="m 321.08804,255.5893 -1.5625,0 -2.73438,-9.07813 q -0.1875,-0.60937 -0.4375,-1.51562 -0.23437,-0.92188 -0.25,-1.10938 -0.20312,1.21875 -0.64062,2.67188 l -2.65625,9.03125 -1.5625,0 -3.60938,-13.5625 1.67188,0 2.14062,8.375 q 0.45313,1.76562 0.65625,3.1875 0.25,-1.6875 0.73438,-3.3125 l 2.4375,-8.25 1.67187,0 2.54688,8.32812 q 0.4375,1.4375 0.75,3.23438 0.17187,-1.3125 0.67187,-3.20313 l 2.125,-8.35937 1.67188,0 -3.625,13.5625 z m 9.49036,0.1875 q -2.25,0 -3.5625,-1.375 -1.29688,-1.375 -1.29688,-3.8125 0,-2.45313 1.20313,-3.90625 1.21875,-1.45313 3.26562,-1.45313 1.90625,0 3.01563,1.26563 1.125,1.25 1.125,3.3125 l 0,0.96875 -7.01563,0 q 0.0469,1.79687 0.90625,2.73437 0.85938,0.92188 2.42188,0.92188 1.64062,0 3.25,-0.6875 l 0,1.375 q -0.8125,0.34375 -1.54688,0.5 -0.73437,0.15625 -1.76562,0.15625 z m -0.40625,-9.25 q -1.23438,0 -1.96875,0.79687 -0.71875,0.79688 -0.84375,2.20313 l 5.3125,0 q 0,-1.45313 -0.65625,-2.21875 -0.64063,-0.78125 -1.84375,-0.78125 z m 11.31057,-1.26563 q 2.01563,0 3.10938,1.375 1.10937,1.35938 1.10937,3.85938 0,2.5 -1.125,3.89062 -1.10937,1.39063 -3.09375,1.39063 -0.98437,0 -1.8125,-0.35938 -0.8125,-0.375 -1.375,-1.14062 l -0.10937,0 -0.32813,1.3125 -1.09375,0 0,-14.4375 1.53125,0 0,3.51562 q 0,1.17188 -0.0781,2.10938 l 0.0781,0 q 1.07813,-1.51563 3.1875,-1.51563 z m -0.21875,1.28125 q -1.57812,0 -2.28125,0.90625 -0.6875,0.90625 -0.6875,3.04688 0,2.14062 0.71875,3.0625 0.71875,0.92187 2.28125,0.92187 1.42188,0 2.10938,-1.03125 0.70312,-1.03125 0.70312,-2.96875 0,-1.98437 -0.70312,-2.95312 -0.6875,-0.98438 -2.14063,-0.98438 z m 13.47928,6.26563 q 0,1.42187 -1.0625,2.20312 -1.04687,0.76563 -2.95312,0.76563 -2.03125,0 -3.15625,-0.64063 l 0,-1.4375 q 0.73437,0.375 1.5625,0.59375 0.84375,0.21875 1.625,0.21875 1.20312,0 1.84375,-0.39062 0.65625,-0.39063 0.65625,-1.17188 0,-0.59375 -0.51563,-1.01562 -0.51562,-0.42188 -2,-1 -1.42187,-0.53125 -2.03125,-0.92188 -0.59375,-0.39062 -0.89062,-0.89062 -0.28125,-0.51563 -0.28125,-1.20313 0,-1.25 1,-1.96875 1.01562,-0.71875 2.78125,-0.71875 1.64062,0 3.21875,0.67188 l -0.54688,1.25 q -1.53125,-0.625 -2.78125,-0.625 -1.09375,0 -1.65625,0.34375 -0.54687,0.34375 -0.54687,0.9375 0,0.42187 0.20312,0.70312 0.20313,0.28125 0.67188,0.54688 0.46875,0.26562 1.78125,0.75 1.8125,0.65625 2.4375,1.32812 0.64062,0.67188 0.64062,1.67188 z m 6.63437,2.96875 q -2.25,0 -3.5625,-1.375 -1.29687,-1.375 -1.29687,-3.8125 0,-2.45313 1.20312,-3.90625 1.21875,-1.45313 3.26563,-1.45313 1.90625,0 3.01562,1.26563 1.125,1.25 1.125,3.3125 l 0,0.96875 -7.01562,0 q 0.0469,1.79687 0.90625,2.73437 0.85937,0.92188 2.42187,0.92188 1.64063,0 3.25,-0.6875 l 0,1.375 q -0.8125,0.34375 -1.54687,0.5 -0.73438,0.15625 -1.76563,0.15625 z m -0.40625,-9.25 q -1.23437,0 -1.96875,0.79687 -0.71875,0.79688 -0.84375,2.20313 l 5.3125,0 q 0,-1.45313 -0.65625,-2.21875 -0.64062,-0.78125 -1.84375,-0.78125 z m 11.2168,-1.29688 q 0.6875,0 1.21875,0.10938 l -0.20313,1.4375 q -0.64062,-0.14063 -1.125,-0.14063 -1.23437,0 -2.10937,1 -0.875,1 -0.875,2.5 l 0,5.45313 -1.53125,0 0,-10.17188 1.26562,0 0.17188,1.89063 0.0781,0 q 0.5625,-1 1.35938,-1.53125 0.79687,-0.54688 1.75,-0.54688 z m 5.20929,10.35938 -3.85938,-10.17188 1.65625,0 2.1875,6.03125 q 0.73438,2.125 0.875,2.75 l 0.0625,0 q 0.10938,-0.5 0.64063,-2.03125 0.54687,-1.54687 2.45312,-6.75 l 1.64063,0 -3.85938,10.17188 -1.79687,0 z m 11.40884,0.1875 q -2.25,0 -3.5625,-1.375 -1.29687,-1.375 -1.29687,-3.8125 0,-2.45313 1.20312,-3.90625 1.21875,-1.45313 3.26563,-1.45313 1.90625,0 3.01562,1.26563 1.125,1.25 1.125,3.3125 l 0,0.96875 -7.01562,0 q 0.0469,1.79687 0.90625,2.73437 0.85937,0.92188 2.42187,0.92188 1.64063,0 3.25,-0.6875 l 0,1.375 q -0.8125,0.34375 -1.54687,0.5 -0.73438,0.15625 -1.76563,0.15625 z m -0.40625,-9.25 q -1.23437,0 -1.96875,0.79687 -0.71875,0.79688 -0.84375,2.20313 l 5.3125,0 q 0,-1.45313 -0.65625,-2.21875 -0.64062,-0.78125 -1.84375,-0.78125 z m 11.21683,-1.29688 q 0.6875,0 1.21875,0.10938 l -0.20313,1.4375 q -0.64062,-0.14063 -1.125,-0.14063 -1.23437,0 -2.10937,1 -0.875,1 -0.875,2.5 l 0,5.45313 -1.53125,0 0,-10.17188 1.26562,0 0.17188,1.89063 0.0781,0 q 0.5625,-1 1.35938,-1.53125 0.79687,-0.54688 1.75,-0.54688 z"
     id="path47" />
  <path
     style="fill:#cfe2f3;fill-rule:nonzero"
     inkscape:connector-curvature="0"
     d="m 313.41208,382.1378 0,0 c 0,-2.25189 19.29993,-4.07742 43.1076,-4.07742 23.80768,0 43.10761,1.82553 43.10761,4.07742 l 0,16.30972 c 0,2.2519 -19.29993,4.07743 -43.10761,4.07743 -23.80767,0 -43.1076,-1.82553 -43.1076,-4.07743 z"
     id="path49" />
  <path
     style="fill:#000000;fill-opacity:0;fill-rule:nonzero"
     inkscape:connector-curvature="0"
     d="m 399.6273,382.1378 0,0 c 0,2.25192 -19.29993,4.07742 -43.1076,4.07742 -23.80768,0 -43.10761,-1.8255 -43.10761,-4.07742"
     id="path51" />
  <path
     style="fill:#000000;fill-opacity:0;fill-rule:nonzero"
     inkscape:connector-curvature="0"
     d="m 313.41208,382.1378 0,0 c 0,-2.25189 19.29993,-4.07742 43.1076,-4.07742 23.80768,0 43.10761,1.82553 43.10761,4.07742 l 0,16.30972 c 0,2.2519 -19.29993,4.07743 -43.10761,4.07743 -23.80767,0 -43.1076,-1.82553 -43.1076,-4.07743 z"
     id="path53" />
  <path
     style="stroke:#000000;stroke-width:2;stroke-linecap:butt;stroke-linejoin:round"
     inkscape:connector-curvature="0"
     d="m 399.6273,382.1378 0,0 c 0,2.25192 -19.29993,4.07742 -43.1076,4.07742 -23.80768,0 -43.10761,-1.8255 -43.10761,-4.07742"
     id="path55" />
  <path
     style="stroke:#000000;stroke-width:2;stroke-linecap:butt;stroke-linejoin:round"
     inkscape:connector-curvature="0"
     d="m 313.41208,382.1378 0,0 c 0,-2.25189 19.29993,-4.07742 43.1076,-4.07742 23.80768,0 43.10761,1.82553 43.10761,4.07742 l 0,16.30972 c 0,2.2519 -19.29993,4.07743 -43.10761,4.07743 -23.80767,0 -43.1076,-1.82553 -43.1076,-4.07743 z"
     id="path57" />
  <path
     style="fill:#000000;fill-opacity:0;fill-rule:nonzero"
     inkscape:connector-curvature="0"
     d="m 414.77167,366.29398 68.7244,0 0,48 -68.7244,0 z"
     id="path59" />
  <path
     style="fill:#000000;fill-rule:nonzero"
     inkscape:connector-curvature="0"
     d="m 435.92792,393.21396 -1.57813,0 0,-6.39063 -7.14062,0 0,6.39063 -1.57813,0 0,-13.5625 1.57813,0 0,5.76562 7.14062,0 0,-5.76562 1.57813,0 0,13.5625 z m 14.29568,-6.90625 q 0,3.35937 -1.82812,5.14062 -1.8125,1.76563 -5.23438,1.76563 l -3.76562,0 0,-13.5625 4.15625,0 q 3.17187,0 4.92187,1.75 1.75,1.75 1.75,4.90625 z m -1.67187,0.0469 q 0,-2.65625 -1.32813,-4 -1.32812,-1.34375 -3.95312,-1.34375 l -2.29688,0 0,10.84375 1.92188,0 q 2.82812,0 4.23437,-1.39062 1.42188,-1.39063 1.42188,-4.10938 z m 15.27237,-0.0469 q 0,3.35937 -1.82813,5.14062 -1.8125,1.76563 -5.23437,1.76563 l -3.76563,0 0,-13.5625 4.15625,0 q 3.17188,0 4.92188,1.75 1.75,1.75 1.75,4.90625 z m -1.67188,0.0469 q 0,-2.65625 -1.32812,-4 -1.32813,-1.34375 -3.95313,-1.34375 l -2.29687,0 0,10.84375 1.92187,0 q 2.82813,0 4.23438,-1.39062 1.42187,-1.39063 1.42187,-4.10938 z"
     id="path61" />
  <path
     style="fill:#cfe2f3;fill-rule:nonzero"
     inkscape:connector-curvature="0"
     d="m 514.95276,182.91339 139.81104,0 0,106.58267 -139.81104,0 z"
     id="path63" />
  <path
     style="stroke:#000000;stroke-width:2;stroke-linecap:butt;stroke-linejoin:round"
     inkscape:connector-curvature="0"
     d="m 514.95276,182.91339 139.81104,0 0,106.58267 -139.81104,0 z"
     id="path65" />
  <path
     style="fill:#000000;fill-rule:nonzero"
     inkscape:connector-curvature="0"
     d="m 564.2536,232.12473 0,-13.5625 1.57812,0 0,12.14062 5.98438,0 0,1.42188 -7.5625,0 z m 18.23029,-5.09375 q 0,2.48437 -1.25,3.89062 -1.25,1.39063 -3.45313,1.39063 -1.375,0 -2.4375,-0.64063 -1.04687,-0.64062 -1.625,-1.82812 -0.57812,-1.20313 -0.57812,-2.8125 0,-2.48438 1.23437,-3.875 1.25,-1.39063 3.46875,-1.39063 2.125,0 3.375,1.42188 1.26563,1.42187 1.26563,3.84375 z m -7.75,0 q 0,1.95312 0.78125,2.96875 0.78125,1.01562 2.29687,1.01562 1.51563,0 2.29688,-1.01562 0.78125,-1.01563 0.78125,-2.96875 0,-1.9375 -0.78125,-2.9375 -0.78125,-1.01563 -2.3125,-1.01563 -1.51563,0 -2.29688,1 -0.76562,0.98438 -0.76562,2.95313 z m 14.3153,5.28125 q -2.21875,0 -3.4375,-1.35938 -1.20312,-1.35937 -1.20312,-3.84375 0,-2.5625 1.23437,-3.95312 1.23438,-1.39063 3.5,-1.39063 0.73438,0 1.46875,0.17188 0.73438,0.15625 1.15625,0.35937 l -0.48437,1.3125 q -0.5,-0.20312 -1.10938,-0.32812 -0.60937,-0.14063 -1.0625,-0.14063 -3.10937,0 -3.10937,3.95313 0,1.875 0.75,2.875 0.76562,1 2.25,1 1.28125,0 2.60937,-0.54688 l 0,1.35938 q -1.01562,0.53125 -2.5625,0.53125 z m 11.06928,-0.1875 -0.3125,-1.45313 -0.0781,0 q -0.75,0.96875 -1.51562,1.3125 -0.75,0.32813 -1.89063,0.32813 -1.5,0 -2.35937,-0.78125 -0.85938,-0.78125 -0.85938,-2.21875 0,-3.07813 4.92188,-3.23438 l 1.73437,-0.0469 0,-0.625 q 0,-1.20313 -0.51562,-1.76563 -0.51563,-0.57812 -1.65625,-0.57812 -1.26563,0 -2.875,0.78125 l -0.46875,-1.1875 q 0.75,-0.40625 1.64062,-0.625 0.90625,-0.23438 1.79688,-0.23438 1.82812,0 2.70312,0.8125 0.875,0.79688 0.875,2.57813 l 0,6.9375 -1.14062,0 z m -3.48438,-1.07813 q 1.4375,0 2.25,-0.78125 0.82813,-0.79687 0.82813,-2.21875 l 0,-0.92187 -1.53125,0.0625 q -1.84375,0.0625 -2.65625,0.57812 -0.8125,0.5 -0.8125,1.5625 0,0.84375 0.5,1.28125 0.51562,0.4375 1.42187,0.4375 z m 9.14136,1.07813 -1.53125,0 0,-14.4375 1.53125,0 0,14.4375 z"
     id="path67" />
  <path
     style="fill:#000000;fill-rule:nonzero"
     inkscape:connector-curvature="0"
     d="m 549.47345,240.56223 3.84375,0 q 2.6875,0 3.89062,0.8125 1.21875,0.79687 1.21875,2.54687 0,1.20313 -0.67187,1.98438 -0.67188,0.78125 -1.96875,1.01562 l 0,0.0937 q 3.09375,0.53125 3.09375,3.25 0,1.8125 -1.23438,2.84375 -1.23437,1.01563 -3.4375,1.01563 l -4.73437,0 0,-13.5625 z m 1.57812,5.8125 2.60938,0 q 1.65625,0 2.39062,-0.51563 0.73438,-0.53125 0.73438,-1.78125 0,-1.14062 -0.8125,-1.64062 -0.8125,-0.51563 -2.59375,-0.51563 l -2.32813,0 0,4.45313 z m 0,1.32812 0,5.07813 2.82813,0 q 1.64062,0 2.46875,-0.625 0.84375,-0.64063 0.84375,-2 0,-1.26563 -0.85938,-1.85938 -0.84375,-0.59375 -2.57812,-0.59375 l -2.70313,0 z m 16.54145,6.42188 -0.3125,-1.45313 -0.0781,0 q -0.75,0.96875 -1.51562,1.3125 -0.75,0.32813 -1.89063,0.32813 -1.5,0 -2.35937,-0.78125 -0.85938,-0.78125 -0.85938,-2.21875 0,-3.07813 4.92188,-3.23438 l 1.73437,-0.0469 0,-0.625 q 0,-1.20313 -0.51562,-1.76563 -0.51563,-0.57812 -1.65625,-0.57812 -1.26563,0 -2.875,0.78125 l -0.46875,-1.1875 q 0.75,-0.40625 1.64062,-0.625 0.90625,-0.23438 1.79688,-0.23438 1.82812,0 2.70312,0.8125 0.875,0.79688 0.875,2.57813 l 0,6.9375 -1.14062,0 z m -3.48438,-1.07813 q 1.4375,0 2.25,-0.78125 0.82813,-0.79687 0.82813,-2.21875 l 0,-0.92187 -1.53125,0.0625 q -1.84375,0.0625 -2.65625,0.57812 -0.8125,0.5 -0.8125,1.5625 0,0.84375 0.5,1.28125 0.51562,0.4375 1.42187,0.4375 z m 11.67261,1.26563 q -2.21875,0 -3.4375,-1.35938 -1.20313,-1.35937 -1.20313,-3.84375 0,-2.5625 1.23438,-3.95312 1.23437,-1.39063 3.5,-1.39063 0.73437,0 1.46875,0.17188 0.73437,0.15625 1.15625,0.35937 l -0.48438,1.3125 q -0.5,-0.20312 -1.10937,-0.32812 -0.60938,-0.14063 -1.0625,-0.14063 -3.10938,0 -3.10938,3.95313 0,1.875 0.75,2.875 0.76563,1 2.25,1 1.28125,0 2.60938,-0.54688 l 0,1.35938 q -1.01563,0.53125 -2.5625,0.53125 z m 6.33484,-5.39063 q 0.39062,-0.5625 1.21875,-1.48437 l 3.28125,-3.48438 1.82812,0 -4.125,4.34375 4.40625,5.82813 -1.85937,0 -3.59375,-4.8125 -1.15625,1.01562 0,3.79688 -1.51563,0 0,-14.4375 1.51563,0 0,7.65625 q 0,0.51562 -0.0781,1.57812 l 0.0781,0 z m 12.55835,5.39063 q -2.25,0 -3.5625,-1.375 -1.29688,-1.375 -1.29688,-3.8125 0,-2.45313 1.20313,-3.90625 1.21875,-1.45313 3.26562,-1.45313 1.90625,0 3.01563,1.26563 1.125,1.25 1.125,3.3125 l 0,0.96875 -7.01563,0 q 0.0469,1.79687 0.90625,2.73437 0.85938,0.92188 2.42188,0.92188 1.64062,0 3.25,-0.6875 l 0,1.375 q -0.8125,0.34375 -1.54688,0.5 -0.73437,0.15625 -1.76562,0.15625 z m -0.40625,-9.25 q -1.23438,0 -1.96875,0.79687 -0.71875,0.79688 -0.84375,2.20313 l 5.3125,0 q 0,-1.45313 -0.65625,-2.21875 -0.64063,-0.78125 -1.84375,-0.78125 z m 13.54492,9.0625 0,-6.57813 q 0,-1.25 -0.57812,-1.85937 -0.5625,-0.60938 -1.76563,-0.60938 -1.59375,0 -2.34375,0.875 -0.73437,0.85938 -0.73437,2.84375 l 0,5.32813 -1.53125,0 0,-10.17188 1.25,0 0.25,1.39063 0.0625,0 q 0.48437,-0.75 1.32812,-1.15625 0.85938,-0.42188 1.90625,-0.42188 1.84375,0 2.76563,0.89063 0.92187,0.89062 0.92187,2.82812 l 0,6.64063 -1.53125,0 z m 11.40381,-1.35938 -0.0781,0 q -1.0625,1.54688 -3.1875,1.54688 -2,0 -3.10937,-1.35938 -1.10938,-1.375 -1.10938,-3.89062 0,-2.51563 1.10938,-3.90625 1.125,-1.39063 3.10937,-1.39063 2.0625,0 3.17188,1.51563 l 0.125,0 -0.0781,-0.73438 -0.0312,-0.71875 0,-4.14062 1.54688,0 0,14.4375 -1.25,0 -0.21875,-1.35938 z m -3.07813,0.25 q 1.57813,0 2.28125,-0.85937 0.71875,-0.85938 0.71875,-2.76563 l 0,-0.32812 q 0,-2.15625 -0.71875,-3.07813 -0.71875,-0.92187 -2.29687,-0.92187 -1.35938,0 -2.07813,1.0625 -0.71875,1.04687 -0.71875,2.96875 0,1.9375 0.71875,2.9375 0.71875,0.98437 2.09375,0.98437 z"
     id="path69" />
  <path
     inkscape:connector-curvature="0"
     inkscape:original-d="m 196.82997,210.40778 c 13.11791,-3.51156 26.42721,-5.80834 38.38185,-13.7781 22.01061,-14.67374 31.69399,-51.18671 40.35014,-72.82709 1.43393,-3.58482 6.88905,-62.291259 6.88905,-69.874636"
     inkscape:path-effect="#path-effect3870"
     id="path3868"
     d="m 196.82997,210.40778 c 13.75031,-0.84866 27.23106,-5.68791 38.38185,-13.7781 11.48855,-8.33525 20.36378,-19.92861 26.79133,-32.58364 6.42756,-12.65502 10.50715,-26.38161 13.55881,-40.24345 5.04374,-22.91064 7.36158,-46.420135 6.88905,-69.874636"
     style="stroke-linejoin:miter;opacity:0.93999999999999995;marker-end:url(#TriangleOutMd);stroke-opacity:1;fill-opacity:1;marker-start:url(#TriangleInMo);stroke:#009d00;stroke-linecap:butt;stroke-miterlimit:10;stroke-dasharray:none;stroke-width:5;fill:none" />
  <path
     inkscape:connector-curvature="0"
     inkscape:original-d="m 205.89729,272.87288 c 13.11791,-3.51156 26.42721,-5.80834 38.38185,-13.7781 22.01061,-14.67374 -1.76711,6.87813 6.88904,-14.76224 1.43393,-3.58482 48.22335,-10.13132 48.22335,-17.7147"
     inkscape:path-effect="#path-effect3870-3"
     id="path3868-6"
     d="m 205.89729,272.87288 c 6.93241,2.49494 14.73265,2.49813 21.66709,0.009 6.93444,-2.48928 12.95183,-7.45264 16.71476,-13.78694 2.77527,-4.67172 4.32063,-9.97367 6.88904,-14.76224 4.42629,-8.25241 11.95495,-14.79274 20.74515,-18.02179 8.7902,-3.22905 18.76236,-3.1176 27.4782,0.30709"
     style="opacity:0.93999999;fill:none;stroke:#009d00;stroke-width:5;stroke-linecap:butt;stroke-linejoin:miter;stroke-miterlimit:10;stroke-opacity:1;stroke-dasharray:none;marker-start:url(#TriangleInMo);marker-end:url(#TriangleOutMd)"
     sodipodi:nodetypes="cssc" />
  <path
     inkscape:connector-curvature="0"
     inkscape:original-d="m 428.65605,271.94418 c 13.11791,-3.51156 26.42721,-5.80834 38.38185,-13.7781 22.01061,-14.67374 -14.82762,-23.22516 6.88904,-14.76224 59.1114,23.03555 51.13591,-8.78706 48.22335,-17.7147"
     inkscape:path-effect="#path-effect3870-3-4"
     id="path3868-6-2"
     d="m 428.65605,271.94418 c 6.93241,2.49494 14.73265,2.49813 21.66709,0.009 6.93444,-2.48928 12.95183,-7.45264 16.71476,-13.78694 2.77527,-4.67172 4.32063,-9.97367 6.88904,-14.76224 4.42629,-8.25241 11.95495,-14.79274 20.74515,-18.02179 8.7902,-3.22905 18.76236,-3.1176 27.4782,0.30709"
     style="opacity:0.93999999;fill:none;stroke:#009d00;stroke-width:5;stroke-linecap:butt;stroke-linejoin:miter;stroke-miterlimit:10;stroke-opacity:1;stroke-dasharray:none;marker-start:url(#TriangleInMo);marker-end:url(#TriangleOutMd)"
     sodipodi:nodetypes="cssc" />
  <path
     inkscape:connector-curvature="0"
     inkscape:original-d="m 360.24412,382.43638 c 1.65737,-13.47827 4.51277,-26.679 1.60076,-40.74849 -5.36152,-25.90444 -27.0882,5.04929 -11.10736,-11.91676 43.49889,-46.18053 11.00553,-50.70476 1.63686,-51.34806"
     inkscape:path-effect="#path-effect3870-3-4-1"
     id="path3868-6-2-3"
     d="m 360.24412,382.43638 c 4.90986,-5.49329 7.83439,-12.72454 8.1236,-20.08656 0.2892,-7.36202 -2.05904,-14.8004 -6.52284,-20.66193 -3.29218,-4.32304 -7.62936,-7.74175 -11.10736,-11.91676 -5.99383,-7.19503 -9.2382,-16.62533 -8.93983,-25.9851 0.29837,-9.35977 4.13677,-18.56429 10.57669,-25.36296"
     style="opacity:0.93999999;fill:none;stroke:#009d00;stroke-width:5;stroke-linecap:butt;stroke-linejoin:miter;stroke-miterlimit:10;stroke-opacity:1;stroke-dasharray:none;marker-start:url(#TriangleInMo);marker-end:url(#TriangleOutMd)"
     sodipodi:nodetypes="cssc" />
  <path
     inkscape:connector-curvature="0"
     inkscape:original-d="m 344.17858,179.63282 c -1.65737,-13.47827 -4.51277,-26.679 -1.60076,-40.74849 5.36152,-25.90444 27.0882,5.04929 11.10736,-11.91676 -43.49889,-46.180535 -11.00553,-50.704765 -1.63686,-51.348065"
     inkscape:path-effect="#path-effect3870-3-4-1-7"
     id="path3868-6-2-3-2"
     d="m 344.17858,179.63282 c -4.90986,-5.49329 -7.83439,-12.72454 -8.1236,-20.08656 -0.2892,-7.36202 2.05904,-14.8004 6.52284,-20.66193 3.29218,-4.32304 7.62936,-7.74175 11.10736,-11.91676 5.99383,-7.19503 9.2382,-16.62533 8.93983,-25.9851 -0.29837,-9.359778 -4.13677,-18.564298 -10.57669,-25.362965"
     style="opacity:0.93999999;fill:none;stroke:#009d00;stroke-width:5;stroke-linecap:butt;stroke-linejoin:miter;stroke-miterlimit:10;stroke-opacity:1;stroke-dasharray:none;marker-start:url(#TriangleInMo);marker-end:url(#TriangleOutMd)"
     sodipodi:nodetypes="cssc" />
  <path
     style="fill:#cfe2f3;fill-rule:nonzero"
     inkscape:connector-curvature="0"
     d="m 227.56223,106.99089 80.25305,0 0,61.17961 -80.25305,0 z"
     id="path63-9" />
  <path
     style="fill:#00eb00;fill-opacity:1;stroke:#009d00;stroke-width:5;stroke-linecap:butt;stroke-linejoin:round;stroke-miterlimit:10;stroke-opacity:1;stroke-dasharray:none"
     inkscape:connector-curvature="0"
     d="m 227.56223,106.99089 80.25305,0 0,61.17961 -80.25305,0 z"
     id="path65-8" />
  <text
     xml:space="preserve"
     style="font-size:40px;font-style:normal;font-weight:normal;line-height:125%;letter-spacing:0px;word-spacing:0px;fill:#000000;fill-opacity:1;stroke:none;font-family:Sans"
     x="268.8631"
     y="131.18373"
     id="text5585"
     sodipodi:linespacing="125%"><tspan
       sodipodi:role="line"
       id="tspan5587"
       x="268.8631"
       y="131.18373"
       style="font-size:16px;font-style:normal;font-variant:normal;font-weight:normal;font-stretch:normal;text-align:center;text-anchor:middle;font-family:PT Sans;-inkscape-font-specification:PT Sans">Delay</tspan><tspan
       sodipodi:role="line"
       x="268.8631"
       y="151.18373"
       id="tspan5589"
       style="font-size:16px;font-style:normal;font-variant:normal;font-weight:normal;font-stretch:normal;text-align:center;text-anchor:middle;font-family:PT Sans;-inkscape-font-specification:PT Sans">Proxy</tspan></text>
</svg>
